<svg xmlns="http://www.w3.org/2000/svg" width="332pt" height="332pt" viewBox="0 0 332 332"><path d="M166 0C104.445 0 54.363 50.078 54.363 111.637c0 38.894 20.39 75.062 53.465 95.289l3.57 26.351c1.688 12.47 12.016 21.871 24.024 21.871h61.156c12.008 0 22.336-9.402 24.024-21.87l3.57-26.352c33.07-20.227 53.465-56.395 53.465-95.29C277.637 50.079 227.555 0 166 0zm47.523 195.773a7.516 7.516 0 00-3.742 5.528l-4.058 29.96c-.676 4.973-4.692 8.872-9.145 8.872h-61.156c-4.453 0-8.469-3.899-9.145-8.875L122.22 201.3a7.509 7.509 0 00-3.742-5.528C88.196 178.628 69.38 146.39 69.38 111.636c0-53.278 43.344-96.621 96.621-96.621 53.277 0 96.621 43.343 96.621 96.62 0 34.755-18.812 66.993-49.098 84.137zm-8.203 67.887h-78.64a7.505 7.505 0 00-7.508 7.508 7.508 7.508 0 007.508 7.508h78.64a7.508 7.508 0 100-15.016zm-9.52 23.528h-59.6a7.507 7.507 0 00-7.509 7.503C128.691 315.266 145.43 332 166 332c20.57 0 37.305-16.734 37.305-37.309.004-4.144-3.36-7.503-7.504-7.503zM166 316.983c-9.66 0-17.902-6.175-20.992-14.785h41.984c-3.09 8.61-11.332 14.785-20.992 14.785zm0 0"/><path d="M213.582 116.027c0-.14 0-.277-.008-.418-.008-.105-.02-.207-.027-.312-.016-.133-.027-.27-.05-.402-.017-.114-.04-.227-.063-.344-.028-.117-.051-.239-.079-.356-.03-.125-.07-.25-.109-.375-.035-.101-.066-.207-.101-.312a7.547 7.547 0 00-.153-.375c-.043-.102-.082-.2-.129-.301-.054-.113-.117-.227-.175-.34a8.456 8.456 0 00-.18-.32c-.059-.098-.125-.195-.188-.29a6.826 6.826 0 00-.242-.343c-.027-.039-.055-.082-.086-.121-.035-.043-.074-.082-.11-.125a7.538 7.538 0 00-.284-.332c-.075-.078-.145-.152-.22-.227a5.259 5.259 0 00-.304-.285 6.796 6.796 0 00-.562-.457c-.098-.07-.196-.14-.293-.207a8.173 8.173 0 00-.309-.191l-.332-.188a11.108 11.108 0 00-.683-.312c-.098-.043-.2-.078-.305-.117a7.021 7.021 0 00-.406-.13c-.055-.015-.11-.038-.164-.054-.051-.012-.102-.02-.149-.031a14.505 14.505 0 00-.398-.086c-.118-.02-.235-.043-.352-.059a10.509 10.509 0 00-.75-.07c-.101-.004-.203 0-.309 0-.14 0-.28 0-.421.008a4.01 4.01 0 00-.305.027c-.14.012-.274.027-.41.047-.113.02-.223.043-.332.062-.125.028-.246.051-.371.082a6.24 6.24 0 00-.36.106c-.11.035-.218.066-.324.105-.125.043-.246.094-.367.145-.102.047-.207.09-.309.137a9.03 9.03 0 00-.66.355 11.004 11.004 0 00-.633.426c-.039.031-.082.055-.117.086l-15.418 12.062-15.414-12.062a7.502 7.502 0 00-9.254 0l-15.41 12.062-15.414-12.062c-.04-.031-.082-.055-.121-.086-.11-.082-.227-.164-.34-.242a11.78 11.78 0 00-.293-.184c-.101-.066-.21-.121-.316-.18a5.69 5.69 0 00-.645-.308c-.121-.051-.246-.106-.375-.149-.101-.039-.207-.07-.312-.105-.125-.035-.246-.074-.371-.106a5.907 5.907 0 00-.36-.078c-.113-.023-.226-.05-.34-.066a7.05 7.05 0 00-.402-.047 4.408 4.408 0 00-.313-.027c-.14-.008-.277-.008-.418-.008-.105 0-.21-.004-.316 0a14.562 14.562 0 00-.746.07 5.496 5.496 0 00-.352.059c-.132.023-.265.05-.398.086-.047.011-.098.015-.148.031-.055.016-.11.035-.165.05-.136.044-.273.087-.406.134a5.518 5.518 0 00-.304.113c-.125.05-.25.105-.375.164-.102.05-.207.098-.305.152a5.656 5.656 0 00-.336.188c-.102.062-.207.125-.305.191a8.03 8.03 0 00-.601.442c-.09.07-.172.148-.258.222-.102.09-.203.184-.297.281a4.3 4.3 0 00-.227.235c-.097.105-.191.21-.28.324-.036.043-.075.082-.114.129-.031.039-.055.082-.086.125-.082.11-.16.219-.234.332-.067.098-.133.2-.192.3-.062.102-.117.204-.176.31-.062.117-.125.23-.18.35-.046.095-.085.192-.128.29a7.797 7.797 0 00-.153.383c-.035.101-.066.207-.101.308a5.75 5.75 0 00-.11.38c-.03.117-.054.234-.078.35-.023.118-.046.231-.062.349-.024.128-.035.265-.05.398-.009.105-.02.207-.028.312-.008.141-.008.278-.008.418 0 .106 0 .211.004.317.004.129.016.262.027.394.012.118.024.235.04.352.015.117.038.234.058.352.027.132.055.265.086.398.012.047.02.098.031.148l28.895 108.067a7.515 7.515 0 007.25 5.57c.64 0 1.293-.082 1.941-.258a7.506 7.506 0 005.316-9.191l-23.097-86.383 2.363 1.848a7.478 7.478 0 004.625 1.597 7.48 7.48 0 004.629-1.597l15.41-12.063 15.418 12.067a7.513 7.513 0 009.254 0l2.363-1.852-23.097 86.383a7.507 7.507 0 005.312 9.191 7.463 7.463 0 001.945.258 7.507 7.507 0 007.246-5.57l28.895-108.067c.016-.05.02-.097.035-.148a7.21 7.21 0 00.082-.398 5.538 5.538 0 00.102-.704c.012-.132.023-.265.027-.394.004-.102.004-.207.004-.313zm0 0"/></svg>