<svg xmlns="http://www.w3.org/2000/svg" width="35pt" height="35pt" viewBox="0 0 35 35"><g fill="#fff"><path d="M17.5 0C11.012 0 5.73 5.281 5.73 11.77c0 4.101 2.149 7.914 5.637 10.046l.375 2.778c.18 1.312 1.27 2.304 2.535 2.304h6.446c1.265 0 2.355-.992 2.535-2.304l.375-2.778A11.804 11.804 0 0029.27 11.77C29.27 5.28 23.988 0 17.5 0zm5.012 20.64a.774.774 0 00-.395.583l-.43 3.156c-.07.523-.496.937-.964.937h-6.446c-.468 0-.894-.414-.964-.937l-.43-3.156a.774.774 0 00-.395-.582 10.217 10.217 0 01-5.175-8.871c0-5.618 4.57-10.188 10.187-10.188 5.617 0 10.188 4.57 10.188 10.188 0 3.664-1.985 7.062-5.176 8.87zm-.867 7.157h-8.29a.79.79 0 100 1.582h8.29a.79.79 0 100-1.582zm-1.005 2.48h-6.28a.79.79 0 00-.794.79A3.94 3.94 0 0017.5 35a3.94 3.94 0 003.934-3.934.79.79 0 00-.793-.789zm-3.14 3.141a2.36 2.36 0 01-2.215-1.559h4.43a2.36 2.36 0 01-2.215 1.559zm0 0"/><path d="M22.516 12.23v-.043c0-.011-.004-.023-.004-.03 0-.016-.004-.032-.004-.044-.004-.011-.004-.023-.008-.039-.004-.011-.004-.023-.008-.035L22.48 12l-.011-.035c-.004-.012-.008-.024-.016-.04l-.012-.03c-.007-.012-.011-.024-.02-.036-.007-.011-.01-.023-.019-.035a.175.175 0 00-.02-.031l-.023-.035-.011-.012-.012-.012c-.008-.011-.02-.023-.027-.035a.164.164 0 00-.024-.027c-.012-.008-.023-.02-.035-.027l-.023-.024c-.012-.008-.024-.016-.036-.027a.258.258 0 01-.03-.02.085.085 0 00-.032-.02.158.158 0 00-.035-.019c-.012-.008-.024-.012-.032-.015-.015-.008-.027-.012-.039-.02l-.035-.012a.296.296 0 00-.043-.011c-.004-.004-.011-.004-.015-.008-.004 0-.012 0-.016-.004-.016-.004-.027-.004-.043-.008-.012-.004-.023-.004-.035-.008-.012 0-.023 0-.04-.004-.01 0-.026 0-.038-.004h-.035c-.016 0-.028 0-.043.004h-.032c-.015.004-.03.004-.043.008-.015 0-.023.004-.035.004a.492.492 0 00-.039.012.116.116 0 00-.039.008l-.035.011-.039.016c-.012.004-.02.012-.031.016-.012.003-.024.011-.035.015a.158.158 0 01-.036.02c-.011.008-.02.015-.03.02a.215.215 0 01-.036.027c-.004.003-.008.003-.012.007l-1.625 1.274-1.625-1.274a.797.797 0 00-.976 0l-1.625 1.274-1.625-1.274c-.004-.004-.008-.004-.012-.007a.215.215 0 01-.035-.028.085.085 0 01-.031-.02c-.012-.003-.024-.011-.036-.015a.137.137 0 00-.035-.02c-.011-.003-.02-.011-.031-.015l-.039-.016-.035-.011a.116.116 0 00-.04-.008l-.034-.012c-.016 0-.028-.004-.04-.004-.011-.004-.027-.004-.039-.008h-.035c-.015-.004-.027-.004-.043-.004h-.035c-.012.004-.027.004-.039.004-.015.004-.027.004-.039.004-.012.004-.023.004-.035.008-.016.004-.031.004-.043.008-.004.004-.012.004-.016.004-.008.004-.011.004-.02.004a.14.14 0 01-.042.015l-.031.012c-.012.004-.024.012-.04.02a.117.117 0 00-.03.015.158.158 0 00-.036.02.085.085 0 00-.031.02l-.031.019c-.012.008-.024.02-.036.027a.13.13 0 01-.027.024.223.223 0 01-.031.027c-.008.008-.016.015-.024.027-.007.012-.02.02-.027.031a.054.054 0 01-.012.016l-.011.012-.024.035-.02.031c-.007.012-.011.024-.019.035-.008.012-.012.024-.02.036l-.011.03c-.008.012-.012.028-.016.04L12.52 12a.492.492 0 00-.012.04.1.1 0 00-.008.034c-.004.016-.004.028-.008.04 0 .011-.004.027-.004.042 0 .008-.004.02-.004.031v.08c0 .011 0 .027.004.039 0 .015 0 .027.004.039 0 .011.004.023.004.035a.641.641 0 00.012.043v.015l3.047 11.395a.796.796 0 00.968.559.79.79 0 00.563-.97l-2.438-9.105.25.196c.145.11.317.168.489.168a.812.812 0 00.488-.168l1.625-1.274 1.625 1.274a.797.797 0 00.977 0l.25-.196-2.438 9.106a.79.79 0 00.766.996.796.796 0 00.765-.586l3.043-11.395c.004-.003.004-.007.004-.015l.012-.043c0-.012.004-.024.004-.035a.12.12 0 00.004-.04c.004-.011.004-.027.004-.038v-.036zm0 0"/></g></svg>