<svg xmlns="http://www.w3.org/2000/svg" width="416" height="416" viewBox="0 0 312 312"><path d="M166.191 0h-23.933c-49.457 0-88.2 40.305-88.2 91.762V220.23c0 51.461 38.743 91.77 88.2 91.77h23.933c50.59 0 91.75-41.168 91.75-91.77V91.762c0-50.598-41.16-91.762-91.75-91.762zm-11.117 48.086h1.852a5.256 5.256 0 015.25 5.25v37.371a5.256 5.256 0 01-5.25 5.25h-1.852a5.256 5.256 0 01-5.25-5.25V53.336a5.256 5.256 0 015.25-5.25zm90.867 172.144c0 43.985-35.773 79.77-79.75 79.77h-23.933c-42.73 0-76.2-35.04-76.2-79.77V91.762c0-44.727 33.47-79.762 76.2-79.762h7.668v24.871c-7.004 2.195-12.102 8.746-12.102 16.465v37.371c0 7.719 5.098 14.27 12.102 16.465v30.871a6 6 0 1012 0v-30.828c7.082-2.149 12.25-8.735 12.25-16.508V53.336c0-7.773-5.168-14.36-12.25-16.508V12h4.265c43.977 0 79.75 35.781 79.75 79.762zm0 0"/></svg>