<svg xmlns="http://www.w3.org/2000/svg" width="35pt" height="35pt" viewBox="0 0 35 35"><path d="M25.887 1.457c-3.883 0-7.09 3.606-8.387 5.309-1.297-1.704-4.504-5.309-8.387-5.309C4.09 1.457 0 6.078 0 11.757c0 3.098 1.23 5.985 3.383 7.962a.71.71 0 00.113.148l13.488 13.461c.145.14.328.215.516.215a.731.731 0 00.516-.215l13.937-13.933.145-.137c.113-.11.226-.219.351-.356a.923.923 0 00.13-.175C34.14 16.812 35 14.344 35 11.757c0-5.679-4.09-10.3-9.113-10.3zm5.476 16.45c-.02.023-.035.046-.054.073-.067.079-.141.149-.215.22L17.5 31.78 4.695 19.004a.775.775 0 00-.172-.219c-1.949-1.703-3.066-4.262-3.066-7.027 0-4.875 3.438-8.84 7.656-8.84 4.176 0 7.739 5.441 7.774 5.5.27.414.957.414 1.226 0 .035-.059 3.598-5.5 7.774-5.5 4.218 0 7.656 3.965 7.656 8.84 0 2.297-.773 4.48-2.18 6.148zm0 0" fill="#fff"/></svg>