<svg xmlns="http://www.w3.org/2000/svg" width="35pt" height="35pt" viewBox="0 0 35 35"><path d="M18.645 0h-2.688C10.41 0 6.062 4.52 6.062 10.293v14.414C6.063 30.477 10.41 35 15.957 35h2.688c5.675 0 10.293-4.617 10.293-10.293V10.293C28.938 4.617 24.32 0 18.645 0zm-1.25 5.395h.21c.325 0 .586.265.586.59v4.19c0 .325-.261.59-.586.59h-.21a.588.588 0 01-.586-.59v-4.19c0-.325.261-.59.586-.59zM27.59 24.707c0 4.934-4.012 8.945-8.945 8.945h-2.688c-4.793 0-8.547-3.93-8.547-8.945V10.293c0-5.016 3.754-8.945 8.547-8.945h.863v2.789c-.789.246-1.36.98-1.36 1.847v4.192c0 .867.571 1.601 1.36 1.847v3.461a.673.673 0 101.344 0v-3.457a1.937 1.937 0 001.375-1.851V5.984a1.93 1.93 0 00-1.375-1.851V1.348h.48c4.934 0 8.946 4.011 8.946 8.945zm0 0" fill="#fff"/></svg>