<?xml version="1.0" encoding="utf-8"?><svg viewBox="0 0 612 612" xmlns="http://www.w3.org/2000/svg" xmlns:xlink="http://www.w3.org/1999/xlink"><style>:root>svg{display:none}:root>svg:target{display:block}</style><svg viewBox="0 0 24 24" id="G-min" xmlns="http://www.w3.org/2000/svg"><path d="M11 7a2 2 0 00-2 2v6a2 2 0 002 2h2a2 2 0 002-2v-4h-2v4h-2V9h4V7h-4z"/></svg><svg viewBox="0 0 32 32" id="arrow" xmlns="http://www.w3.org/2000/svg"><g data-name="Layer 2"><path d="M13 26a1 1 0 01-.71-.29l-9-9a1 1 0 010-1.42l9-9a1 1 0 111.42 1.42L5.41 16l8.3 8.29a1 1 0 010 1.42A1 1 0 0113 26z"/><path d="M28 17H4a1 1 0 010-2h24a1 1 0 010 2z"/></g><path d="M0 0h32v32H0z" fill="none"/></svg><svg viewBox="0 0 24 24" id="blog-walp" xmlns="http://www.w3.org/2000/svg"><path d="M7.36 5.94L10.8 2.5c.7-.7 1.7-.7 2.4 0l3.44 3.44L12 10.59 7.36 5.94m10.7 1.42L13.41 12l4.65 4.64 3.44-3.44c.6-.7.6-1.7 0-2.4l-3.44-3.44M5.94 16.64L10.59 12 5.94 7.36 2.5 10.8c-.7.7-.7 1.7 0 2.4l3.44 3.44M12 13.41l-4.64 4.65 3.44 3.44c.7.7 1.7.7 2.4 0l3.44-3.44L12 13.41z"/></svg><svg viewBox="0 0 320 512" id="blog-walp2" xmlns="http://www.w3.org/2000/svg"><path d="M95.75 164.14l-35.38 43.55L25 164.14l35.38-43.55zM144.23 0l-20.54 198.18L72.72 256l51 57.82L144.23 512V300.89L103.15 256l41.08-44.89zm79.67 164.14l35.38 43.55 35.38-43.55-35.38-43.55zm-48.48 47L216.5 256l-41.08 44.89V512L196 313.82 247 256l-51-57.82L175.42 0z"/></svg><svg viewBox="0 0 496 512" id="blog-walp3" xmlns="http://www.w3.org/2000/svg"><path d="M248 504C111.25 504 0 392.75 0 256S111.25 8 248 8s248 111.25 248 248-111.25 248-248 248zm0-479.47C120.37 24.53 16.53 128.37 16.53 256S120.37 487.47 248 487.47 479.47 383.63 479.47 256 375.63 24.53 248 24.53zm27.62 21.81v24.62a185.933 185.933 0 0183.57 34.54l17.39-17.36c-28.75-22.06-63.3-36.89-100.96-41.8zm-55.37.07c-37.64 4.94-72.16 19.8-100.88 41.85l17.28 17.36h.08c24.07-17.84 52.55-30.06 83.52-34.67V46.41zm12.25 50.17v82.87c-10.04 2.03-19.42 5.94-27.67 11.42l-58.62-58.59-21.93 21.93 58.67 58.67c-5.47 8.23-9.45 17.59-11.47 27.62h-82.9v31h82.9c2.02 10.02 6.01 19.31 11.47 27.54l-58.67 58.69 21.93 21.93 58.62-58.62a77.873 77.873 0 0027.67 11.47v82.9h31v-82.9c10.05-2.03 19.37-6.06 27.62-11.55l58.67 58.69 21.93-21.93-58.67-58.69c5.46-8.23 9.47-17.52 11.5-27.54h82.87v-31h-82.87c-2.02-10.02-6.03-19.38-11.5-27.62l58.67-58.67-21.93-21.93-58.67 58.67c-8.25-5.49-17.57-9.47-27.62-11.5V96.58h-31zm183.24 30.72l-17.36 17.36a186.337 186.337 0 0134.67 83.67h24.62c-4.95-37.69-19.83-72.29-41.93-101.03zm-335.55.13c-22.06 28.72-36.91 63.26-41.85 100.91h24.65c4.6-30.96 16.76-59.45 34.59-83.52l-17.39-17.39zM38.34 283.67c4.92 37.64 19.75 72.18 41.8 100.9l17.36-17.39c-17.81-24.07-29.92-52.57-34.51-83.52H38.34zm394.7 0c-4.61 30.99-16.8 59.5-34.67 83.6l17.36 17.36c22.08-28.74 36.98-63.29 41.93-100.96h-24.62zM136.66 406.38l-17.36 17.36c28.73 22.09 63.3 36.98 100.96 41.93v-24.64c-30.99-4.63-59.53-16.79-83.6-34.65zm222.53.05c-24.09 17.84-52.58 30.08-83.57 34.67v24.57c37.67-4.92 72.21-19.79 100.96-41.85l-17.31-17.39h-.08z"/></svg><svg viewBox="0 0 32 32" id="clock" xmlns="http://www.w3.org/2000/svg"><g data-name="Layer 2"><path d="M16 29a13 13 0 1113-13 13 13 0 01-13 13zm0-24a11 11 0 1011 11A11 11 0 0016 5z"/><path d="M21.5 22.5a1 1 0 01-.71-.29l-5.5-5.5A1 1 0 0115 16V8a1 1 0 012 0v7.59l5.21 5.2a1 1 0 010 1.42 1 1 0 01-.71.29z"/></g><path d="M0 0h32v32H0z" fill="none"/></svg><svg viewBox="0 0 512 512" id="inst-min" xmlns="http://www.w3.org/2000/svg"><path d="M505 257c0 34.8-.7 69.7.2 104.5 1.5 61.6-37.2 109.2-86.5 130.4-19.8 8.5-40.6 13-62.1 13-67.3.1-134.7 1-202-.3-50.7-1-92.4-22.2-122.3-64-15.7-22-23.2-47-23.2-74.1v-215c0-58.5 28.5-99.4 79.1-126C110.2 14 134.1 9.1 159 9c65.3 0 130.7-.4 196 .2 50.7.4 93 19.8 124.2 60.6 17.4 22.8 25.8 49 25.8 77.8V257zm-459 0v110c0 16.4 3.8 31.8 12.3 45.7 22.3 36.5 56 54.3 97.8 55 67.1 1 134.3.4 201.5.2 16.5 0 32.5-3.4 47.4-10.5 40.6-19.4 63.3-50.3 63.1-96.7-.4-71-.1-142-.1-213 0-20.1-5.7-38.5-17.6-54.7-23-31.1-54.8-46.4-92.8-46.8-67-.8-134-.3-201-.2-14.3 0-28.1 2.9-41.5 7.9-36.8 13.7-71 48.4-69.4 99.5 1.2 34.6.3 69.1.3 103.6z"/><path d="M257.6 363c-64.5 0-116.5-51.4-116.6-115.4-.1-63 52.3-114.6 116.4-114.6 64.3-.1 116.5 51.4 116.6 114.9 0 63.4-52.1 115-116.4 115.1zm0-37c43.9 0 79.5-35.1 79.4-78.3-.1-42.8-35.7-77.8-79.4-77.8-43.9 0-79.7 34.9-79.7 78 .1 43.2 35.8 78.2 79.7 78.1zM387.5 98c13.5 0 24.5 11.5 24.5 25.6-.1 14.1-11.2 25.5-24.7 25.4-13.3-.1-24.2-11.5-24.2-25.3C363 109.6 374 98 387.5 98z"/></svg><svg viewBox="0 0 512 512" id="tg-min" xmlns="http://www.w3.org/2000/svg"><path d="M470.435 45.423L16.827 221.249c-18.254 8.188-24.428 24.585-4.412 33.484l116.37 37.173 281.368-174.79c15.363-10.973 31.091-8.047 17.557 4.024L186.053 341.075l-7.591 93.076c7.031 14.371 19.905 14.438 28.117 7.295l66.858-63.589 114.505 86.187c26.595 15.826 41.066 5.613 46.788-23.394l75.105-357.47c7.798-35.705-5.5-51.437-39.4-37.757z"/></svg><svg viewBox="0 0 30 30" id="theme" xmlns="http://www.w3.org/2000/svg"><path d="M17.5 15c-.797 0-1.456.314-1.88.793-.424.48-.62 1.098-.62 1.707 0 .78-.568 1.418-.81 1.607a.5.5 0 00.31.893H17c.786 0 1.517-.23 2.072-.662.555-.432.928-1.09.928-1.838 0-.683-.193-1.32-.63-1.785-.44-.465-1.097-.715-1.87-.715zm0 1c.57 0 .914.16 1.14.4.227.24.36.602.36 1.1 0 .432-.19.776-.54 1.05-.353.272-.872.45-1.46.45h-1.423c.237-.4.422-.9.422-1.5 0-.39.13-.772.368-1.043.24-.27.583-.457 1.132-.457zM29.284 5.01a1.583 1.583 0 00-.352.09c-.238.08-.513.21-.838.374-.65.33-1.477.813-2.35 1.365-1.75 1.103-3.66 2.457-4.642 3.438-.935.934-1.616 1.784-1.936 2.637-.32.852-.186 1.777.478 2.44.665.665 1.59.8 2.442.48.853-.32 1.703-1.002 2.637-1.936.98-.983 2.335-2.893 3.44-4.64a31.362 31.362 0 001.365-2.353c.165-.324.293-.6.375-.838.04-.12.072-.226.086-.352.013-.126.047-.327-.167-.54-.214-.215-.413-.18-.54-.167zm-.647 1.444c-.307.603-.78 1.416-1.32 2.27-1.08 1.713-2.46 3.628-3.3 4.468-.888.887-1.678 1.48-2.283 1.707-.604.225-.954.177-1.383-.25-.427-.43-.475-.78-.25-1.384.228-.604.82-1.394 1.71-2.28.84-.84 2.754-2.22 4.466-3.3a29.892 29.892 0 012.272-1.322c.134-.036.13.022.09.09zM2.5 8h17a.499.499 0 110 1h-17a.499.499 0 110-1zM7 6.5a.5.5 0 11-1 0 .5.5 0 011 0zm-2 0a.5.5 0 11-1 0 .5.5 0 011 0zm-2 0a.5.5 0 11-1 0 .5.5 0 011 0zM1.5 4C.678 4 0 4.678 0 5.5v19c0 .822.678 1.5 1.5 1.5h25c.822 0 1.5-.678 1.5-1.5v-12c0-.668-1-.665-1 0v12c0 .286-.214.5-.5.5h-25a.488.488 0 01-.5-.5v-19c0-.286.214-.5.5-.5h25c.665 0 .657-1 0-1z"/></svg><svg viewBox="0 0 612 612" id="theme-switcher" xmlns="http://www.w3.org/2000/svg"><path d="M76.5 286.875H19.125C8.568 286.875 0 295.443 0 306s8.568 19.125 19.125 19.125H76.5c10.557 0 19.125-8.568 19.125-19.125s-8.568-19.125-19.125-19.125zM306 95.625c10.557 0 19.125-8.568 19.125-19.125V19.125C325.125 8.568 316.557 0 306 0s-19.125 8.568-19.125 19.125V76.5c0 10.557 8.568 19.125 19.125 19.125zm184.002 53.167l40.182-40.182c7.401-7.401 7.401-19.393 0-26.794s-19.394-7.401-26.795 0l-40.182 40.182c-7.401 7.401-7.401 19.393 0 26.794 7.402 7.402 19.394 7.402 26.795 0zM141.716 443.509l-40.182 40.182c-7.401 7.401-7.401 19.393 0 26.794s19.393 7.401 26.794 0l40.182-40.182c7.401-7.401 7.401-19.393 0-26.794s-19.392-7.402-26.794 0zm-11.513-286.263c7.478 7.478 19.584 7.478 27.042 0 7.459-7.478 7.459-19.584 0-27.042L116.682 89.62c-7.478-7.478-19.584-7.478-27.043 0-7.478 7.478-7.478 19.584 0 27.043l40.564 40.583zM306 516.375c-10.557 0-19.125 8.568-19.125 19.125v57.375c0 10.557 8.568 19.125 19.125 19.125s19.125-8.568 19.125-19.125V535.5c0-10.557-8.568-19.125-19.125-19.125zm175.797-61.621c-7.478-7.478-19.584-7.478-27.043 0-7.478 7.479-7.478 19.584 0 27.043l40.564 40.564c7.478 7.478 19.584 7.478 27.043 0 7.459-7.479 7.478-19.584 0-27.043l-40.564-40.564zm111.078-167.879H535.5c-10.557 0-19.125 8.568-19.125 19.125s8.568 19.125 19.125 19.125h57.375c10.557 0 19.125-8.568 19.125-19.125s-8.568-19.125-19.125-19.125zM306 133.76c-95.128 0-172.24 77.112-172.24 172.24S210.872 478.24 306 478.24 478.24 401.128 478.24 306 401.128 133.76 306 133.76zm0 306.077c-73.918 0-133.837-59.919-133.837-133.837S232.082 172.163 306 172.163 439.837 232.082 439.837 306 379.918 439.837 306 439.837z"/></svg><svg viewBox="0 0 32 32" id="viber-min" xmlns="http://www.w3.org/2000/svg"><path d="M15.198.005C12.63.036 7.109.458 4.021 3.291 1.724 5.567.922 8.932.828 13.093.75 17.239.656 25.025 8.161 27.145v3.229s-.047 1.292.807 1.557c1.052.333 1.651-.661 2.651-1.729l1.865-2.109c5.135.427 9.068-.557 9.521-.703 1.042-.333 6.911-1.083 7.87-8.87.984-8.042-.479-13.109-3.12-15.401h-.016c-.797-.734-4-3.068-11.156-3.094 0 0-.531-.036-1.385-.021zm.088 2.261c.729-.005 1.172.026 1.172.026 6.057.016 8.948 1.839 9.63 2.453 2.224 1.906 3.37 6.474 2.531 13.188-.797 6.51-5.557 6.922-6.438 7.203-.375.12-3.839.974-8.203.693 0 0-3.25 3.922-4.266 4.932-.161.177-.349.229-.469.203-.172-.042-.224-.255-.214-.547l.031-5.359c-6.365-1.76-5.99-8.401-5.922-11.87.078-3.469.729-6.307 2.667-8.229 2.609-2.359 7.297-2.677 9.479-2.693zm.48 3.468a.397.397 0 00-.401.396c0 .224.182.401.401.401a7.513 7.513 0 015.375 2.12c1.453 1.411 2.161 3.307 2.188 5.786 0 .219.177.401.401.401v-.016a.4.4 0 00.401-.396 8.614 8.614 0 00-2.417-6.349c-1.583-1.547-3.589-2.344-5.948-2.344zm-5.271.917a1.252 1.252 0 00-.818.161h-.021A6.276 6.276 0 008.13 8.067c-.365.422-.563.849-.615 1.26-.031.245-.01.49.063.724l.026.016c.411 1.208.948 2.37 1.604 3.464a20.376 20.376 0 003.094 4.229l.036.052.057.042.036.042.042.036a20.67 20.67 0 004.24 3.109c1.76.958 2.828 1.411 3.469 1.599v.01c.188.057.359.083.531.083a2.452 2.452 0 001.469-.63 6.064 6.064 0 001.24-1.531v-.01c.307-.578.203-1.125-.24-1.495a18.467 18.467 0 00-2.865-2.057c-.682-.37-1.375-.146-1.656.229l-.599.755c-.307.375-.865.323-.865.323l-.016.01c-4.161-1.063-5.271-5.276-5.271-5.276s-.052-.573.333-.865l.75-.604c.359-.292.609-.984.224-1.667a17.992 17.992 0 00-2.052-2.865 1.14 1.14 0 00-.672-.401zm5.963 1.188c-.531 0-.531.802.005.802a5.026 5.026 0 013.531 1.531 4.66 4.66 0 011.198 3.427.403.403 0 00.401.396l.016.021a.404.404 0 00.401-.401c.036-1.589-.458-2.922-1.427-3.99-.974-1.068-2.333-1.667-4.068-1.786h-.057zm.657 2.156c-.547-.016-.568.802-.026.818 1.318.068 1.958.734 2.042 2.104a.398.398 0 00.396.391h.016a.403.403 0 00.385-.427c-.094-1.786-1.068-2.792-2.797-2.885h-.016z"/></svg></svg>