<svg width="17" height="14" xmlns="http://www.w3.org/2000/svg" xmlns:xlink="http://www.w3.org/1999/xlink" xmlns:svgjs="http://svgjs.com/svgjs" viewBox="0 0.296 17 13.409" fill="#fff"><svg xmlns="http://www.w3.org/2000/svg" width="17" height="14" viewBox="1.798 1.404 15.204 11.992"><path paint-order="stroke fill markers" fill-rule="evenodd" d="M17.002 2.823a6.37 6.37 0 01-1.792.477 3.051 3.051 0 001.372-1.675 6.37 6.37 0 01-1.98.735 3.159 3.159 0 00-2.277-.956c-1.723 0-3.12 1.355-3.12 3.028 0 .236.028.467.081.689a8.944 8.944 0 01-6.43-3.164 2.95 2.95 0 00-.422 1.522c0 1.05.55 1.978 1.388 2.52a3.186 3.186 0 01-1.413-.378v.038c0 1.467 1.075 2.69 2.502 2.969a3.216 3.216 0 01-1.409.051c.397 1.203 1.55 2.078 2.914 2.103a6.38 6.38 0 01-3.874 1.296c-.252 0-.5-.015-.744-.043a9.015 9.015 0 004.782 1.361c5.737 0 8.874-4.613 8.874-8.614 0-.13-.002-.263-.008-.392a6.232 6.232 0 001.556-1.567z"/></svg></svg>