<svg xmlns="http://www.w3.org/2000/svg" width="35pt" height="35pt" viewBox="0 0 35 35"><path d="M.11 3.21l2.335 4.087c.078.14.211.238.368.277l2.175.543 7.473 7.473.824-.824L5.7 7.176a.612.612 0 00-.273-.153L3.332 6.5 1.344 3.016 3.05 1.312l3.48 1.993.528 2.09a.56.56 0 00.152.273l7.59 7.59.824-.828-7.473-7.473-.543-2.176a.61.61 0 00-.277-.367L3.246.082a.58.58 0 00-.7.094L.212 2.512a.58.58 0 00-.102.699zm24.269 8.294l-12.84 12.844-.828-.828 12.844-12.84zM9.29 24.8a.578.578 0 00-.5-.28h-3.5a.585.585 0 00-.505.28l-1.75 2.919a.592.592 0 000 .601l1.75 2.918a.589.589 0 00.504.285h3.5a.58.58 0 00.5-.285l1.754-2.918a.592.592 0 000-.601zm-.83 5.555H5.618L4.215 28.02l1.402-2.336h2.844l1.398 2.336zm0 0"/><path d="M28.055 14.012a6.985 6.985 0 006.789-8.7.584.584 0 00-.98-.269L30.23 8.672l-2.882-.961-.961-2.883 3.633-3.633a.585.585 0 00-.274-.98 6.984 6.984 0 00-8.7 6.789c.005.46.052.918.145 1.371L8.406 21.156a6.762 6.762 0 00-1.367-.14A7.003 7.003 0 00.035 28.02a7 7 0 007.004 7.003 7.003 7.003 0 007.004-7.003c0-.457-.047-.918-.14-1.368l3.058-3.058 1.34 1.336c.226.23.597.23.824 0l.293-.293a.658.658 0 01.926 0 .658.658 0 010 .925l-.293.293a.585.585 0 000 .825l6.965 6.965a4.708 4.708 0 006.66.03 4.71 4.71 0 00.031-6.663l-.031-.032-6.961-6.96a.585.585 0 00-.824 0l-.293.293a.658.658 0 01-.926 0 .65.65 0 010-.926l.293-.293a.585.585 0 000-.824l-1.34-1.34 3.059-3.063c.453.094.91.14 1.37.145zm2.293 19.847a3.624 3.624 0 01-1.243-.226l4.56-4.563a3.545 3.545 0 01-3.317 4.79zm-6.614-15.172a1.818 1.818 0 00.227 2.567 1.819 1.819 0 002.34-.004l6.55 6.559c.07.07.137.144.204.222l-4.992 4.989a3.532 3.532 0 01-.223-.2l-6.555-6.558a1.825 1.825 0 00-.226-2.567 1.824 1.824 0 00-2.344.004l-.934-.933 5.02-5.012zm2.356-5.87L12.848 26.054a.582.582 0 00-.153.554 5.878 5.878 0 01-11.39 2.899 5.878 5.878 0 017.144-7.145c.2.051.41-.008.555-.152L22.242 8.973a.587.587 0 00.153-.555 5.815 5.815 0 014.19-7.07 5.795 5.795 0 011.798-.168l-3.078 3.078a.583.583 0 00-.14.597l1.167 3.504a.591.591 0 00.367.368l3.504 1.168c.211.07.442.015.598-.141l3.078-3.078a5.807 5.807 0 01-7.238 5.984.593.593 0 00-.555.156zm0 0"/><path d="M30.219 29.36l-.828.824-5.836-5.836.824-.828zm0 0"/></svg>