<svg xmlns="http://www.w3.org/2000/svg" width="35pt" height="35pt" viewBox="0 0 35 35"><g fill="#fff"><path d="M34.613 26.875l-.566-1.527a.687.687 0 00-.879-.403.686.686 0 00-.402.88l.566 1.527a4.6 4.6 0 01-.539 4.28 4.603 4.603 0 01-3.824 1.997 4.624 4.624 0 01-3.965-2.211l-.692-1.121c.25-.426.395-.922.395-1.45a2.873 2.873 0 00-2.871-2.87 2.88 2.88 0 00-2.79 2.187H15.95a2.87 2.87 0 10-5.261 2.133l-.692 1.121a4.624 4.624 0 01-3.965 2.21 4.603 4.603 0 01-3.824-1.995 4.6 4.6 0 01-.539-4.281l3.277-8.82a5.807 5.807 0 015.418-3.766h14.274a5.803 5.803 0 015.418 3.765l.566 1.528a.682.682 0 00.879.402.681.681 0 00.402-.879l-.566-1.523a7.174 7.174 0 00-6.7-4.66h-1.593a3.97 3.97 0 00-3.902-3.282h-.957v-.512a3.661 3.661 0 00-3.657-3.656H7.352A2.293 2.293 0 015.059 3.66a2.293 2.293 0 012.293-2.289h10.156a.684.684 0 000-1.367H7.352A3.658 3.658 0 003.695 3.66a3.658 3.658 0 003.657 3.656h7.175a2.292 2.292 0 012.29 2.29v.511h-.958a3.97 3.97 0 00-3.902 3.281h-1.594a7.174 7.174 0 00-6.699 4.66L.387 26.876a5.942 5.942 0 00.699 5.535 5.948 5.948 0 004.945 2.586 5.984 5.984 0 005.13-2.86l.515-.835a2.874 2.874 0 004.277-1.77h3.098a2.866 2.866 0 002.785 2.184c.543 0 1.055-.149 1.488-.414l.516.836a5.984 5.984 0 005.129 2.86c2 0 3.8-.942 4.945-2.587a5.942 5.942 0 00.7-5.535zM15.86 11.485h3.282a2.6 2.6 0 012.504 1.913h-8.29a2.6 2.6 0 012.504-1.914zm-2.695 18.867a1.505 1.505 0 111.504-1.504c0 .828-.676 1.504-1.504 1.504zm7.168-1.504a1.505 1.505 0 013.008 0c0 .828-.676 1.504-1.504 1.504a1.507 1.507 0 01-1.504-1.504zm0 0"/><path d="M23.848 20.973c0 1.207.98 2.187 2.187 2.187 1.203 0 2.184-.98 2.184-2.187 0-1.203-.98-2.184-2.184-2.184-1.207 0-2.187.98-2.187 2.184zm3.004 0a.82.82 0 11-1.64.002.82.82 0 011.64-.002zm-9.02 0a2.188 2.188 0 004.375 0 2.188 2.188 0 00-4.375 0zm3.008 0a.82.82 0 11-1.64 0 .82.82 0 011.64 0zm-10.098-3.961A2.048 2.048 0 008.7 18.93a2.049 2.049 0 000 4.09 2.049 2.049 0 004.09 0 2.049 2.049 0 000-4.09 2.052 2.052 0 00-2.047-1.918zm2.598 3.96a.682.682 0 01-.684.684h-.547a.687.687 0 00-.683.684v.547a.684.684 0 01-1.367 0v-.547a.684.684 0 00-.68-.684h-.547a.684.684 0 010-1.367h.547c.375 0 .68-.305.68-.684v-.543a.684.684 0 011.367 0v.543c0 .38.308.684.683.684h.547c.38 0 .684.309.684.684zm18.312 1.731c0 .18.075.356.2.485.128.125.304.199.484.199s.355-.075.484-.2a.703.703 0 00.2-.484.703.703 0 00-.2-.484.703.703 0 00-.484-.2.703.703 0 00-.484.2.703.703 0 00-.2.484zm0 0"/></g></svg>