<svg xmlns="http://www.w3.org/2000/svg" width="35pt" height="35pt" viewBox="0 0 35 35"><path d="M28.555 11.973H3.43A2.488 2.488 0 01.945 9.488V3.961A2.49 2.49 0 013.43 1.477h25.125a2.488 2.488 0 012.484 2.484v5.527a2.486 2.486 0 01-2.484 2.485zM3.43 2.426c-.848 0-1.535.687-1.54 1.535v5.527a1.547 1.547 0 001.54 1.54h25.125a1.545 1.545 0 001.539-1.54V3.961c0-.848-.692-1.535-1.54-1.535zm0 0"/><path d="M16.465 19.04h-.945v-1.51a2.486 2.486 0 012.484-2.484h14.07c.57 0 1.035-.465 1.035-1.035V8.234A1.037 1.037 0 0032.074 7.2h-1.508v-.945h1.508a1.98 1.98 0 011.98 1.98v5.778a1.98 1.98 0 01-1.98 1.98h-14.07c-.852 0-1.54.688-1.54 1.54zm0 0"/><path d="M18.004 33.582h-4.02a1.485 1.485 0 01-1.48-1.48V20.043c0-.816.664-1.477 1.48-1.48h4.02a1.481 1.481 0 011.476 1.48v12.059a1.48 1.48 0 01-1.476 1.48zm-4.02-14.07a.533.533 0 00-.535.531v12.059c0 .296.239.53.535.535h4.02a.535.535 0 00.531-.535V20.043a.532.532 0 00-.531-.531zm0 0"/></svg>