<svg xmlns="http://www.w3.org/2000/svg" width="35pt" height="35pt" viewBox="0 0 35 35"><path d="M33.977 32.95H7.89a5.848 5.848 0 01-5.84-5.84 5.848 5.848 0 015.84-5.84h19.218c4.352 0 7.891-3.54 7.891-7.887 0-4.352-3.54-7.89-7.89-7.89h-8.665A6.526 6.526 0 0012.008 0H6.516c-.567 0-1.024.46-1.024 1.023v1.723H1.027a1.025 1.025 0 100 2.05h4.465v3.442H1.027a1.025 1.025 0 100 2.051h4.465v1.719c0 .566.457 1.027 1.024 1.027h5.492a6.526 6.526 0 006.437-5.492h8.664a5.846 5.846 0 015.84 5.84 5.845 5.845 0 01-5.84 5.836H7.891C3.539 19.219 0 22.758 0 27.109 0 31.461 3.54 35 7.89 35h26.087a1.026 1.026 0 000-2.051zm-21.97-21.966H7.544V2.051h4.465a4.472 4.472 0 014.469 4.465 4.473 4.473 0 01-4.47 4.468zm0 0" fill="#fff"/></svg>