<svg xmlns="http://www.w3.org/2000/svg" width="20" height="14pt" viewBox="0 0 15 14"><path d="M11.031.578c-1.656 0-3.02 1.434-3.574 2.113-.55-.68-1.918-2.113-3.574-2.113C1.743.578 0 2.418 0 4.676a4.15 4.15 0 001.441 3.168c.012.02.032.039.047.058l5.75 5.352c.063.059.14.086.219.086.082 0 .16-.027.219-.086l5.941-5.54.063-.054c.047-.043.093-.086.148-.14.02-.024.04-.047.055-.07a4.216 4.216 0 001.031-2.774c0-2.258-1.742-4.098-3.883-4.098zm2.332 6.543c-.008.012-.011.02-.023.031a.934.934 0 01-.09.086l-5.793 5.403L2 7.559a.257.257 0 00-.074-.086A3.592 3.592 0 01.62 4.676c0-1.938 1.465-3.516 3.262-3.516 1.781 0 3.297 2.164 3.312 2.188.117.164.41.164.524 0C7.734 3.324 9.25 1.16 11.03 1.16c1.797 0 3.262 1.578 3.262 3.516 0 .914-.328 1.781-.93 2.445zm0 0" fill="#fff"/></svg>