<svg xmlns="http://www.w3.org/2000/svg" width="20" height="14pt" viewBox="0 0 15 14"><g fill="#fff"><path d="M6.184 10.61l-1.758 1.64c-.73.68-1.91.68-2.637 0a1.656 1.656 0 010-2.46l3.516-3.282c.726-.68 1.906-.68 2.636 0a.653.653 0 00.88 0 .554.554 0 000-.82c-1.216-1.13-3.18-1.13-4.395 0L.91 8.967c-1.215 1.134-1.215 2.97 0 4.102 1.215 1.133 3.18 1.133 4.395 0l1.758-1.64a.554.554 0 000-.82.653.653 0 00-.88 0zm0 0"/><path d="M14.004.852c-1.215-1.133-3.18-1.133-4.395 0L7.504 2.816a.548.548 0 000 .82.648.648 0 00.875 0l2.11-1.964c.73-.684 1.91-.684 2.636 0 .73.676.73 1.777 0 2.457l-3.867 3.61a1.956 1.956 0 01-2.633 0 .653.653 0 00-.879 0 .548.548 0 000 .82c1.211 1.132 3.18 1.132 4.39 0l3.868-3.61c1.215-1.133 1.215-2.965 0-4.097zm0 0"/></g></svg>