<svg width="64" height="63" viewBox="0 0 64 63" fill="none" xmlns="http://www.w3.org/2000/svg">
<path d="M32.2828 0C28.7279 0 25.1767 0.537574 21.7454 1.61371L15.622 3.52871C9.26274 5.52317 5.32407 11.9024 6.38499 18.4822L8.16158 29.5222C5.45985 30.0519 3.12505 31.6271 1.60877 33.81C0.860065 34.8879 0.60378 36.2413 0.524104 37.5951C0.444394 38.949 0.567552 40.2988 0.817148 41.3783L3.47693 52.87C3.99721 55.1198 6.01318 56.7245 8.32234 56.7245H10.4082V61.9301C10.4062 62.5055 10.8707 62.9738 11.4461 62.9761H15.6139C15.9637 62.9758 16.2901 62.8002 16.4828 62.508L20.3392 56.7245H44.2325L48.0889 62.508C48.2816 62.7997 48.608 62.9758 48.9578 62.9761H53.1256C53.701 62.9738 54.1656 62.5055 54.1634 61.9301V56.7245H56.2494C58.5585 56.7245 60.5745 55.1198 61.0948 52.87L63.7545 41.3783C64.0042 40.2988 64.1272 38.949 64.0476 37.5951C63.9679 36.2413 63.7117 34.8818 62.9629 33.8039C61.4451 31.6188 59.1072 30.0464 56.402 29.5201L58.1867 18.4822C59.2476 11.9024 55.3089 5.52317 48.9497 3.52871L42.8263 1.61371C39.395 0.537574 35.8377 0 32.2828 0H32.2828ZM32.2849 2.07979C35.6298 2.07979 38.9753 2.5854 42.2036 3.5979L48.3189 5.52098C53.7049 7.21021 57.0238 12.5777 56.1253 18.1504L54.3263 29.3288C48.6198 29.371 43.9802 34.032 43.9802 39.7482C43.9802 40.4931 44.0614 41.22 44.2101 41.9216C36.0965 40.457 27.8612 40.5212 20.3677 41.8939C20.5125 41.2011 20.5916 40.4838 20.5916 39.749C20.5916 34.0329 15.952 29.3716 10.2455 29.3297L8.44651 18.1512C7.54797 12.5784 10.8668 7.21096 16.2529 5.52174L22.3682 3.59865C25.5965 2.58613 28.94 2.08055 32.2849 2.08055L32.2849 2.07979ZM32.2828 4.12095C29.449 4.12095 26.6174 4.54718 23.8822 5.40498L19.0449 6.92929C13.9133 8.53874 10.7284 13.6875 11.5845 18.997L12.3537 23.7732C12.4463 24.3424 12.9835 24.7282 13.5524 24.634C14.1196 24.5422 14.5056 24.0089 14.4152 23.4415L13.646 18.6653C12.9523 14.3628 15.5092 10.2176 19.6676 8.91339L24.5049 7.39735C29.5695 5.80897 35.0002 5.80897 40.0648 7.39735L44.9041 8.91339C49.0625 10.2176 51.6194 14.3628 50.9257 18.6653L50.1565 23.4415C50.0661 24.0089 50.4521 24.5424 51.0193 24.634C51.5882 24.7283 52.1255 24.3426 52.218 23.7732L52.9872 18.997C53.8433 13.6875 50.6584 8.53874 45.5268 6.92929L40.6895 5.40498C37.9543 4.54718 35.1166 4.12095 32.2828 4.12095ZM20.3901 12.5276C20.1135 12.5282 19.8484 12.6385 19.6534 12.8348C19.2493 13.2412 19.2493 13.8977 19.6534 14.3041L20.3941 15.0428L19.6534 15.7815C19.2493 16.1879 19.2493 16.8444 19.6534 17.2508C20.0605 17.6589 20.7217 17.6589 21.1288 17.2508L21.8675 16.5121L22.6062 17.2508C23.0126 17.6549 23.6691 17.6549 24.0755 17.2508C24.4796 16.8444 24.4796 16.1879 24.0755 15.7815L23.3368 15.0428L24.0755 14.3041C24.4796 13.8977 24.4796 13.2412 24.0755 12.8348C23.88 12.6382 23.6141 12.5276 23.3368 12.5276C23.0623 12.5297 22.7998 12.6404 22.6062 12.8348L21.8675 13.5735L21.1288 12.8348C20.9333 12.6382 20.6674 12.5276 20.3901 12.5276ZM41.2349 12.5276C40.9576 12.5277 40.6917 12.6382 40.4962 12.8348C40.0921 13.2412 40.0921 13.8977 40.4962 14.3041L41.2349 15.0428L40.4962 15.7815C40.0921 16.1879 40.0921 16.8444 40.4962 17.2508C40.9026 17.6549 41.5591 17.6549 41.9655 17.2508L42.7042 16.5121L43.4429 17.2508C43.85 17.6589 44.5112 17.6589 44.9183 17.2508C45.3224 16.8444 45.3224 16.1879 44.9183 15.7815L44.1775 15.0428L44.9183 14.3041C45.321 13.8979 45.321 13.243 44.9183 12.8368C44.5112 12.4286 43.85 12.4286 43.4429 12.8368L42.7062 13.5735L41.9655 12.8348C41.7719 12.6401 41.5094 12.5295 41.2349 12.5276ZM30.8135 18.7813C30.5362 18.7813 30.2703 18.8919 30.0748 19.0884C29.6707 19.4949 29.6707 20.1514 30.0748 20.5577L30.8135 21.2964L30.0748 22.0351C29.6707 22.4416 29.6707 23.098 30.0748 23.5045C30.4821 23.914 31.1449 23.914 31.5522 23.5045L32.2869 22.7698L33.0195 23.5045C33.4268 23.914 34.0896 23.914 34.4969 23.5045C34.901 23.098 34.901 22.4416 34.4969 22.0351L33.7582 21.2964L34.4969 20.5577C34.901 20.1514 34.901 19.4949 34.4969 19.0884C34.3014 18.8919 34.0355 18.7813 33.7582 18.7813C33.4809 18.7813 33.215 18.8919 33.0195 19.0884L32.2869 19.8231L31.5522 19.0884C31.3567 18.8919 31.0908 18.7813 30.8135 18.7813ZM22.476 27.1188C22.1995 27.1172 21.9338 27.2254 21.7373 27.4201C21.3291 27.8272 21.3291 28.4883 21.7373 28.8954L22.4739 29.6301L21.7373 30.3648C21.3277 30.7721 21.3277 31.4348 21.7373 31.8422C22.1446 32.2517 22.8073 32.2517 23.2147 31.8422L23.9514 31.1055L24.6901 31.8422C25.0965 32.2462 25.753 32.2462 26.1594 31.8422C26.5689 31.4348 26.5689 30.7721 26.1594 30.3648L25.4247 29.6301L26.1594 28.8954C26.5675 28.4883 26.5675 27.8272 26.1594 27.4201C25.9628 27.2254 25.6971 27.1173 25.4207 27.1188C25.147 27.1194 24.8846 27.2276 24.6901 27.4201L23.9514 28.1567L23.2147 27.4201C23.0182 27.2254 22.7524 27.1173 22.476 27.1188ZM39.151 27.1188C38.8746 27.1172 38.6088 27.2254 38.4123 27.4201C38.0042 27.8272 38.0042 28.4883 38.4123 28.8954L39.147 29.6301L38.4123 30.3648C38.0028 30.7721 38.0028 31.4348 38.4123 31.8422C38.8187 32.2462 39.4752 32.2462 39.8816 31.8422L40.6203 31.1055L41.357 31.8422C41.7643 32.2517 42.4271 32.2517 42.8344 31.8422C43.2439 31.4348 43.2439 30.7721 42.8344 30.3648L42.0977 29.6301L42.8344 28.8954C43.2426 28.4883 43.2426 27.8272 42.8344 27.4201C42.6379 27.2254 42.3722 27.1173 42.0957 27.1188C41.8193 27.1172 41.5535 27.2254 41.357 27.4201L40.6203 28.1567L39.8816 27.4201C39.6871 27.2276 39.4246 27.1197 39.151 27.1188ZM10.1681 31.4107C14.784 31.4107 18.5056 35.1323 18.5056 39.7482C18.5056 40.6669 18.3541 41.5411 18.0803 42.3632C17.3952 42.5163 16.7089 42.6798 16.0229 42.8557C16.2698 41.2069 16.1812 39.4381 15.6607 37.8556C14.9471 35.6865 13.1581 33.8051 10.4774 33.7957C8.54023 33.7957 6.79814 34.6953 5.66256 36.0954C5.02915 36.8764 4.82706 37.8313 4.74679 38.7632C4.66656 39.695 4.73564 40.6163 4.88518 41.364L6.71467 50.5156C6.82819 51.0779 7.3749 51.4427 7.93772 51.3316C8.50335 51.2216 8.87259 50.674 8.76191 50.1086L6.93038 40.955C6.82496 40.4277 6.762 39.643 6.82252 38.9403C6.88306 38.2376 7.09777 37.6301 7.27634 37.41C8.03028 36.4804 9.17482 35.882 10.4693 35.8796C12.2615 35.8889 13.1403 36.8809 13.6765 38.511C14.1575 39.973 14.1538 41.901 13.7701 43.4744C13.2366 43.6306 12.7024 43.7925 12.1685 43.9628C11.6233 44.1402 11.3241 44.7252 11.499 45.2713C11.674 45.819 12.2596 46.1213 12.8075 45.9468C13.5022 45.7257 14.196 45.5173 14.8893 45.3201C14.9043 45.317 14.9193 45.3109 14.9341 45.3078C16.3153 44.9159 17.6934 44.5722 19.0693 44.276C19.0966 44.2729 19.1238 44.2668 19.1507 44.2607C30.158 41.9059 41.003 42.5844 51.7722 45.9477C52.3219 46.1202 52.9071 45.8137 53.0787 45.2639C53.2472 44.7161 52.9417 44.1352 52.395 43.9635C51.8657 43.7981 51.3357 43.6398 50.8056 43.4873C50.4189 41.9117 50.4129 39.9776 50.8951 38.5116C51.4306 36.8839 52.3072 35.8895 54.0942 35.8804C55.3918 35.8804 56.5399 36.4794 57.2953 37.4107C57.4739 37.631 57.6886 38.2383 57.7491 38.941C57.8097 39.6437 57.7467 40.4285 57.6413 40.9558L55.8097 50.1093C55.6987 50.6721 56.0635 51.2189 56.6258 51.3324C57.1914 51.4485 57.7436 51.0825 57.857 50.5163L59.6865 41.3648C59.836 40.617 59.9051 39.6958 59.8248 38.764C59.7446 37.8322 59.5425 36.877 58.9091 36.096C57.7735 34.6959 56.0314 33.7965 54.0942 33.7965C51.4135 33.8057 49.6245 35.6873 48.911 37.8564C48.388 39.446 48.3017 41.2236 48.5528 42.8789C47.8689 42.7057 47.1847 42.5425 46.4995 42.3904C46.2201 41.5607 46.066 40.6775 46.066 39.749C46.066 35.1331 49.7876 31.4114 54.4035 31.4114C57.2487 31.4114 59.7414 32.8272 61.2473 34.9951C61.6201 35.5318 61.9051 36.5845 61.9718 37.718C62.0385 38.8516 61.9216 40.0634 61.7255 40.9109L59.0637 52.4008C58.7594 53.7166 57.5999 54.6392 56.2493 54.6392H8.3223C6.9717 54.6392 5.81216 53.7166 5.50786 52.4008L2.84604 40.9109C2.65005 40.0634 2.53309 38.8516 2.59981 37.718C2.66649 36.5845 2.95148 35.5318 3.32428 34.9951C4.8302 32.8271 7.32289 31.4114 10.1681 31.4114L10.1681 31.4107ZM12.4921 56.7245H17.83L15.0522 60.8921H12.4921V56.7245ZM46.7335 56.7245H52.0796V60.8921H49.5114L46.7335 56.7245Z" fill="#AE9D81"/>
</svg>
