<svg width="47" height="63" viewBox="0 0 47 63" fill="none" xmlns="http://www.w3.org/2000/svg">
<path d="M15.1617 0C12.3639 0 9.95126 2.01442 9.45078 4.76704L6.16899 22.806L2.70673 25.6992C0.993132 27.1272 0 29.2389 0 31.4695V37.5632C0 38.8776 0.856192 40.0008 2.03253 40.4246V42.6435C2.03253 44.292 3.37027 45.6465 5.01094 45.6815L4.12258 60.863C4.05679 61.9806 4.96617 62.9471 6.0857 62.9471H8.12418C9.19621 62.9471 10.1271 62.1665 10.3134 61.1108L13.036 45.6873H13.9025L13.2581 56.8019C13.1931 57.9194 14.1037 58.886 15.2232 58.886H17.2617C18.3343 58.886 19.2653 58.1066 19.4489 57.0497L21.4179 45.6873H25.2768L27.2518 57.0497C27.4352 58.1066 28.3664 58.8859 29.439 58.886H31.4716C32.591 58.886 33.5076 57.9194 33.4426 56.8019L32.7942 45.6873H33.6647L36.3873 61.1108C36.5734 62.1666 37.5044 62.9471 38.5765 62.9471H40.607C41.7266 62.9471 42.6438 61.9826 42.5781 60.865L41.6818 45.6815C43.3262 45.6507 44.6681 44.2947 44.6681 42.6435V40.4246C45.8445 40.0008 46.7007 38.8776 46.7007 37.5632V31.4695C46.7007 29.2389 45.7075 27.1272 43.9939 25.6992L40.5238 22.806L37.2499 4.76704C36.7494 2.01442 34.3367 0 31.539 0H15.1617ZM41.6263 35.5327C41.6263 33.3018 39.7941 31.4695 37.5632 31.4695H9.13748C6.90661 31.4695 5.0744 33.3018 5.0744 35.5327V38.5824H3.04385C2.4711 38.5824 2.03253 38.1359 2.03253 37.5632V31.4695C2.03253 29.8402 2.75191 28.3008 4.0036 27.2577L7.29134 24.5213L11.8046 26.3218C12.324 26.5298 12.9136 26.2773 13.1232 25.7586C13.3306 25.2371 13.0759 24.6466 12.5541 24.4399L8.25109 22.7188L11.4536 5.12596C11.7809 3.32584 13.332 2.0305 15.1617 2.0305H31.539C33.3686 2.0305 34.9218 3.32587 35.2491 5.12596L38.4417 22.7188L34.1386 24.4399C33.6198 24.6495 33.3693 25.2392 33.5775 25.7586C33.787 26.2776 34.3766 26.53 34.8961 26.3218L39.4093 24.5213L42.6971 27.2577C43.9488 28.3008 44.6681 29.8402 44.6681 31.4695V37.5632C44.6681 38.1359 44.2296 38.5824 43.6568 38.5824H41.6263V35.5327ZM24.3944 6.0916C24.3724 6.0916 24.3507 6.09228 24.329 6.09365C24.0729 6.1028 23.8293 6.20532 23.6468 6.38528L23.3514 6.68081L23.0539 6.38528C22.8548 6.18915 22.5837 6.08358 22.3044 6.09365C22.0462 6.1028 21.8002 6.2041 21.6163 6.38528C21.2172 6.78219 21.2172 7.42795 21.6163 7.82489L21.9117 8.12043L21.6163 8.41597C21.2172 8.81288 21.2172 9.45867 21.6163 9.85558C22.013 10.2533 22.6572 10.2533 23.0539 9.85558L23.3514 9.56004L23.6468 9.85558C24.0437 10.2546 24.6895 10.2546 25.0865 9.85558C25.4855 9.45867 25.4855 8.81288 25.0865 8.41597L24.791 8.12043L25.0865 7.82489C25.4855 7.42795 25.4855 6.78219 25.0865 6.38528C24.9018 6.20257 24.6541 6.09728 24.3944 6.09179L24.3944 6.0916ZM15.1934 12.1853C14.9371 12.1944 14.6935 12.2982 14.5113 12.4787C14.1123 12.8757 14.1123 13.5214 14.5113 13.9184L14.8068 14.2139L14.5113 14.5094C14.1123 14.9064 14.1123 15.5521 14.5113 15.949C14.9073 16.3428 15.547 16.3428 15.943 15.949L16.2424 15.6499L16.5418 15.949C16.9379 16.3428 17.5775 16.3428 17.9735 15.949C18.3726 15.5521 18.3726 14.9064 17.9735 14.5094L17.6781 14.2139L17.9735 13.9184C18.3726 13.5214 18.3726 12.8757 17.9735 12.4787C17.7748 12.282 17.5036 12.1755 17.224 12.1853C16.9677 12.1944 16.724 12.2982 16.5418 12.4787L16.2424 12.7779L15.943 12.4787C15.7443 12.282 15.473 12.1755 15.1934 12.1853ZM29.4093 12.1853C29.1509 12.1944 28.9048 12.297 28.7212 12.4787C28.3222 12.8757 28.3222 13.5214 28.7212 13.9184L29.0167 14.2139L28.7212 14.5094C28.3222 14.9064 28.3222 15.5521 28.7212 15.949C29.1179 16.3468 29.7621 16.3468 30.1588 15.949L30.4563 15.6535L30.7518 15.949C31.1487 16.3481 31.7945 16.3481 32.1914 15.949C32.5904 15.5521 32.5904 14.9064 32.1914 14.5094L31.8959 14.2139L32.1914 13.9184C32.5904 13.5214 32.5904 12.8757 32.1914 12.4787C31.9927 12.282 31.7215 12.1755 31.4418 12.1853C31.1828 12.1944 30.9359 12.2966 30.7518 12.4787L30.4563 12.7743L30.1588 12.4787C29.9601 12.282 29.6889 12.1755 29.4093 12.1853ZM9.13748 33.5001H37.5632C38.6967 33.5001 39.5957 34.3992 39.5957 35.5327V37.5632C39.5957 38.1359 39.1492 38.5824 38.5765 38.5824H8.11823C7.54549 38.5824 7.10494 38.1359 7.10495 37.5632V35.5327C7.10495 34.3992 8.00403 33.5001 9.13748 33.5001ZM4.05515 40.6129C17.6175 40.6129 30.8923 40.6129 42.6376 40.6129V42.6435C42.6376 43.2163 42.199 43.6568 41.6263 43.6568H5.0744C4.50166 43.6568 4.05515 43.2163 4.05515 42.6435V40.6129ZM7.04743 45.6873H10.9737L8.31257 60.7599C8.2953 60.8584 8.22434 60.9164 8.12418 60.9164H6.14718L7.04743 45.6873ZM15.939 45.6873H19.3557L17.4481 56.6968C17.4312 56.7941 17.3605 56.8532 17.2617 56.8532H15.2827L15.939 45.6873ZM27.3391 45.6873H30.7617L31.4101 56.8555H29.439C29.34 56.8555 29.2695 56.7945 29.2527 56.6969L27.3391 45.6873ZM35.729 45.6873H39.6532L40.5535 60.9165H38.5765C38.4764 60.9165 38.4054 60.8585 38.3881 60.76L35.729 45.6873Z" fill="#AE9D81"/>
</svg>
