<svg width="64" height="64" viewBox="0 0 64 64" fill="none" xmlns="http://www.w3.org/2000/svg">
<g clip-path="url(#clip0_52_97)">
<path fill-rule="evenodd" clip-rule="evenodd" d="M21.5182 61.3336H59.9998C61.0639 61.3336 62.0826 60.9096 62.8319 60.1577C63.584 59.4057 64.0027 58.3871 64 57.3232L63.8853 13.8148C63.88 11.6097 62.0879 9.82585 59.8825 9.82585L26.3504 9.83918C24.9984 4.22098 19.7022 0 13.3472 0C6.23226 0 0.440019 5.29556 0.0346688 11.9217C0.0133346 12.0177 0 12.1163 0 12.2203C0 12.2203 0 51.2251 0 51.3344C0 58.3018 5.95491 64 13.3366 64C16.4247 64 19.2621 63.0027 21.5182 61.3336ZM20.2782 58.9258C22.5583 57.0966 24.0063 54.3795 24.0063 51.3344C24.0063 45.7935 19.2061 41.3352 13.3366 41.3352C7.46964 41.3352 2.66678 45.7935 2.66678 51.3344C2.66678 56.8753 7.46964 61.3336 13.3366 61.3336C15.9447 61.3336 18.3421 60.4536 20.2008 58.9871C20.2248 58.9658 20.2515 58.9471 20.2782 58.9258ZM48.0073 12.4976V58.6671H59.9998C60.3545 58.6671 60.6959 58.5258 60.9439 58.2751C61.1945 58.0245 61.3359 57.6859 61.3332 57.3312L61.2185 13.8228C61.2159 13.0869 60.6185 12.4923 59.8852 12.4923L48.0073 12.4976ZM45.3405 12.4976L34.6734 12.503V58.6671H45.3405V12.4976ZM24.209 58.6671H32.0067V12.503L26.6838 12.5056C26.6838 12.559 26.6731 50.7451 26.6731 51.3344C26.6731 54.0622 25.7611 56.5953 24.209 58.6671ZM13.3472 45.9828C10.4084 45.9828 8.02167 48.3693 8.02167 51.3077C8.02167 54.2461 10.4084 56.6299 13.3472 56.6299C16.286 56.6299 18.6728 54.2461 18.6728 51.3077C18.6728 48.3693 16.286 45.9828 13.3472 45.9828ZM13.3472 48.6493C14.8139 48.6493 16.006 49.8385 16.006 51.3077C16.006 52.7743 14.8139 53.9635 13.3472 53.9635C11.8805 53.9635 10.6884 52.7743 10.6884 51.3077C10.6884 49.8385 11.8805 48.6493 13.3472 48.6493ZM24.017 43.7537C24.017 43.7537 24.017 12.7083 24.017 12.6656C24.017 7.12474 19.2168 2.66645 13.3472 2.66645C7.48031 2.66645 2.67744 7.12474 2.67744 12.6656C2.67744 12.7216 2.67211 43.735 2.67211 43.735C5.10155 40.6633 8.96837 38.6688 13.3366 38.6688C17.7127 38.6688 21.5876 40.6713 24.017 43.7537Z" fill="#AE9D81"/>
</g>
<defs>
<clipPath id="clip0_52_97">
<rect width="64" height="64" fill="white"/>
</clipPath>
</defs>
</svg>
