<svg width="56" height="64" viewBox="0 0 56 64" fill="none" xmlns="http://www.w3.org/2000/svg">
<path d="M24.5115 1.61177C20.8835 1.61177 16.91 0.016372 13.1325 0C9.64116 0 5.2944 0.839787 3.0044 3.04843C1.10993 4.94032 0 7.83035 0 11.6953C0 15.7225 1.42915 19.2652 4.32744 22.588C6.97733 25.5266 8.41932 29.3245 8.87505 32.5219C9.39461 36.3748 9.20098 40.5654 9.22934 44.3533V58.6888V60.7404C9.22729 61.3065 9.68397 61.7673 10.2501 61.7692C10.8193 61.7713 11.2812 61.3095 11.279 60.7404V59.7196L13.3226 59.7216V60.7924C13.3206 61.3616 13.7823 61.8236 14.3514 61.8214C14.9176 61.8193 15.3745 61.3586 15.3722 60.7924V59.7256L17.4219 59.7277V62.8422C17.4198 63.4113 17.8815 63.8732 18.4507 63.871C19.0169 63.8689 19.4757 63.4083 19.4735 62.8422V59.7317L21.5231 59.7337V60.7925C21.5211 61.3617 21.9828 61.8236 22.552 61.8214C23.1181 61.8193 23.575 61.3587 23.5728 60.7925V59.7377L25.6224 59.7398V62.8422C25.6204 63.4114 26.0821 63.8733 26.6512 63.8711C27.2174 63.869 27.6763 63.4085 27.674 62.8422V59.7438L29.7237 59.7458V60.7926C29.7216 61.3588 30.1783 61.8195 30.7445 61.8214C31.3136 61.8235 31.7756 61.3618 31.7733 60.7926V59.7496L33.8229 59.7517V62.8422C33.8209 63.4083 34.2796 63.869 34.8458 63.8709C35.4149 63.873 35.8768 63.4113 35.8746 62.8422V59.7557L37.9242 59.7577V60.7925C37.9222 61.3587 38.3789 61.8194 38.945 61.8214C39.5142 61.8234 39.9761 61.3617 39.9739 60.7925V59.7617L42.0235 59.7638V62.8422C42.0214 63.4085 42.4801 63.8692 43.0463 63.8711C43.6125 63.869 44.0694 63.4085 44.0671 62.8422V59.7677L46.1168 59.7698V60.7926C46.1147 61.3618 46.5764 61.8237 47.1456 61.8214C47.7118 61.8194 48.1686 61.3588 48.1664 60.7926V58.751L48.1822 42.2959C48.1933 27.1498 51.1492 19.5237 51.5709 18.5109C53.8725 16.6289 55.3459 13.7715 55.3459 10.5767C55.3459 4.95791 50.7897 0.383408 45.1818 0.336427C39.3963 0.336427 31.4183 2.47714 24.5115 1.61177ZM16.1889 2.24174C18.174 2.44353 20.7049 3.62287 24.1252 3.62287C33.9864 4.40511 40.3667 2.38587 45.194 2.38587C49.6881 2.43849 53.2965 6.06935 53.2965 10.5764C53.2965 15.1076 49.6498 18.7608 45.122 18.7749C36.847 17.8425 29.414 17.4587 21.1909 18.2764C21.1755 18.2785 21.1601 18.2796 21.1449 18.2827C19.3728 18.5615 17.8292 18.7337 16.5012 18.8351C19.0265 16.953 20.5024 13.9258 20.5024 10.5725C20.5024 7.13749 18.7938 4.09912 16.1889 2.23986L16.1889 2.24174ZM10.2502 2.382C14.7902 2.382 18.4507 6.03437 18.4507 10.5745C18.4507 15.1981 15.4734 18.775 10.2502 18.775C9.02079 18.775 8.03255 18.3195 7.29982 17.498C6.56708 16.6765 6.09086 15.4568 6.09086 13.8971C6.09086 12.4923 6.49572 11.4185 7.22576 10.6745C7.9558 9.93066 9.06218 9.45566 10.7286 9.45566C11.3319 9.45566 11.9839 9.78138 12.494 10.2503H11.0688C9.38011 10.2503 7.96634 11.6187 7.96635 13.3067C7.96634 14.9948 9.38011 16.3551 11.0688 16.3551C13.4763 16.3551 15.4483 14.3831 15.4483 11.9756C15.4483 9.44458 13.2066 7.40602 10.7286 7.40602C8.6508 7.40602 6.93012 8.04777 5.7646 9.2354C4.59906 10.423 4.03921 12.0848 4.03921 13.8971C4.03921 15.8786 4.66256 17.6146 5.7726 18.8591C6.60108 19.788 7.70255 20.4266 8.94313 20.6905C11.3095 23.5089 13.2832 28.1522 13.3226 31.9475V50.3842C13.3247 50.9416 13.7721 51.3949 14.3294 51.405L17.4299 51.4809V54.4833C17.4319 55.0495 17.8925 55.5062 18.4587 55.504H38.9371C39.5032 55.5061 39.9639 55.0495 39.9659 54.4833V51.5109H43.0463C43.6125 51.5089 44.0693 51.0482 44.0671 50.4821V32.0974C44.0671 27.6214 45.2173 24.5774 46.3229 20.7444C47.2197 20.6364 48.082 20.4132 48.893 20.0879C47.8145 23.6758 46.141 30.9977 46.1328 42.2876L46.117 57.7218L11.2792 57.668V44.3454C11.2792 44.3423 11.2792 44.3422 11.2792 44.3391C11.2513 40.6357 11.4551 36.3617 10.9009 32.2516C10.3498 28.1645 8.98735 24.3289 5.84488 21.2127C3.21145 18.1823 2.04986 15.2446 2.04986 11.6971C2.04986 8.21625 3.01204 5.93715 4.45577 4.49539C6.06019 3.019 8.3861 2.40422 10.2504 2.38389L10.2502 2.382ZM50.3922 9.4176C49.8231 9.41555 49.3611 9.87731 49.3634 10.4464C49.3634 13.268 47.1731 15.5004 44.4835 15.5004C43.9175 15.5025 43.4604 15.9632 43.4627 16.5292C43.4647 17.0921 43.9206 17.5479 44.4835 17.55C48.3144 17.55 51.413 14.3431 51.413 10.4464C51.415 9.88043 50.9582 9.41979 50.3922 9.4176ZM11.0688 12.2998H13.3667C13.2102 13.4406 12.2571 14.3053 11.0688 14.3053C10.4615 14.3053 10.01 13.8598 10.01 13.3065C10.01 12.7533 10.4615 12.2998 11.0688 12.2998ZM32.0676 19.8798C32.2451 19.8819 32.4495 19.8922 32.63 19.8953L28.7029 23.8444L24.9199 20.0454C26.7608 19.9404 29.17 19.851 32.0676 19.8798ZM35.4483 19.9739C38.1796 20.0856 41.1289 20.3108 44.1872 20.7205C43.1475 24.2222 42.0235 27.2531 42.0235 32.0975V49.4594H38.9371C38.3738 49.4615 37.9182 49.9189 37.9162 50.4822V53.4546H31.1628L35.5864 49.013C35.9824 48.6135 35.9824 47.9694 35.5864 47.5699L30.144 42.1075L37.7961 34.4274C38.1975 34.0269 38.1975 33.3768 37.7961 32.9763L30.144 25.2981L35.4483 19.9739ZM22.2157 20.2422L27.2537 25.2982L19.6016 32.9764C19.2002 33.3768 19.2002 34.027 19.6016 34.4275L27.2537 42.1076L21.8114 47.57C21.4153 47.9695 21.4153 48.6136 21.8114 49.0131L26.2349 53.4547H19.4795V50.4823C19.4775 49.9277 19.0371 49.4737 18.4827 49.4594L15.3723 49.3854V31.9315C15.3723 31.9284 15.3723 31.9284 15.3723 31.9253C15.3331 28.1538 13.8133 24.0783 11.7033 20.9585C15.9606 21.0693 18.692 20.5336 22.2157 20.2442V20.2422ZM21.0928 22.8242C19.7411 22.8242 18.6248 23.9476 18.6249 25.2982C18.6249 26.6489 19.7411 27.7702 21.0928 27.7702C22.4446 27.7702 23.5588 26.6489 23.5588 25.2982C23.5588 23.9476 22.4446 22.8242 21.0928 22.8242ZM36.305 22.8242C34.9532 22.8242 33.839 23.9476 33.839 25.2982C33.839 26.6489 34.9532 27.7702 36.305 27.7702C37.6567 27.7702 38.7709 26.6489 38.7709 25.2982C38.7709 23.9476 37.6567 22.8242 36.305 22.8242ZM21.0928 24.8739C21.3329 24.8739 21.5072 25.0513 21.5072 25.2982C21.5071 25.5455 21.3329 25.7206 21.0928 25.7206C20.8528 25.7206 20.6765 25.5451 20.6765 25.2982C20.6765 25.0513 20.8528 24.8739 21.0928 24.8739ZM36.305 24.8739C36.545 24.8739 36.7213 25.0513 36.7213 25.2982C36.7213 25.5455 36.545 25.7206 36.305 25.7206C36.0649 25.7206 35.8886 25.5451 35.8886 25.2982C35.8886 25.0513 36.0649 24.8739 36.305 24.8739ZM28.7029 26.7493L35.6244 33.703L28.7029 40.6545L21.7734 33.703L28.7029 26.7493ZM21.0928 39.6336C19.7411 39.6336 18.6249 40.757 18.6249 42.1076C18.6248 43.4582 19.7411 44.5816 21.0928 44.5816C22.4446 44.5816 23.5588 43.4582 23.5588 42.1076C23.5588 40.757 22.4446 39.6336 21.0928 39.6336ZM36.305 39.6336C34.9532 39.6336 33.839 40.757 33.839 42.1076C33.839 43.4582 34.9532 44.5816 36.305 44.5816C37.6567 44.5816 38.7709 43.4582 38.7709 42.1076C38.7709 40.757 37.6567 39.6336 36.305 39.6336ZM21.0928 41.6833C21.3329 41.6833 21.5071 41.8606 21.5072 42.1076C21.5072 42.3543 21.3329 42.53 21.0928 42.53C20.8528 42.53 20.6765 42.3545 20.6765 42.1076C20.6765 41.8606 20.8528 41.6833 21.0928 41.6833ZM36.305 41.6833C36.545 41.6833 36.7213 41.8606 36.7213 42.1076C36.7213 42.3543 36.545 42.53 36.305 42.53C36.0649 42.53 35.8886 42.3545 35.8886 42.1076C35.8886 41.8606 36.0649 41.6833 36.305 41.6833ZM28.7029 43.5588L33.4146 48.2946L28.7029 53.0303L23.9811 48.2946L28.7029 43.5588Z" fill="#AE9D81"/>
</svg>
