<svg width="51" height="52" viewBox="0 0 51 52" fill="none" xmlns="http://www.w3.org/2000/svg">
<path d="M25.5221 51.0644C32.3351 51.0644 38.7383 48.409 43.5636 43.5838C48.0398 39.1075 50.68 33.1595 50.9987 26.832C51.029 26.2099 50.5434 25.6637 49.9213 25.6333C49.2992 25.603 48.753 26.0885 48.7226 26.7107C48.4343 32.4615 46.0217 37.8785 41.94 41.9602C37.5548 46.3454 31.7129 48.7731 25.5069 48.7731C19.3009 48.7731 13.459 46.3605 9.07384 41.9602C0.0151717 32.9015 0.0151717 18.1527 9.07384 9.09404C16.7972 1.37065 28.8148 0.0808919 37.9493 5.8924L35.385 9.03335L42.7442 8.28984L42.0007 0.930617L39.406 4.11708C29.3458 -2.43793 16.0082 -1.05713 7.46544 7.48564C-2.48848 17.4396 -2.48848 33.6147 7.46544 43.5686C12.3058 48.409 18.7091 51.0644 25.5221 51.0644Z" fill="#AE9D81"/>
<path d="M37.5548 20.2922C37.5548 20.277 37.5548 20.2618 37.5396 20.2618C37.5396 20.2315 37.5245 20.2163 37.5245 20.186C37.5245 20.1708 37.5093 20.1404 37.5093 20.1253C37.5093 20.1101 37.4941 20.0949 37.4941 20.0797C37.4638 20.0039 37.4334 19.9432 37.3879 19.8825L32.5627 12.7964C32.3503 12.4777 32.0013 12.2957 31.6219 12.2957H19.392C19.0126 12.2957 18.6636 12.4777 18.4512 12.7964L13.626 19.8673C13.5804 19.928 13.5501 20.0039 13.5198 20.0646C13.5198 20.0797 13.5046 20.0949 13.5046 20.1101C13.4894 20.1253 13.4894 20.1556 13.4894 20.1708C13.4894 20.2011 13.4742 20.2163 13.4742 20.2467C13.4742 20.2618 13.4742 20.277 13.4591 20.277C13.4439 20.3529 13.4287 20.4287 13.4287 20.5046V37.6357C13.4287 38.2578 13.9446 38.7737 14.5667 38.7737H36.432C37.0541 38.7737 37.57 38.2578 37.57 37.6357V20.5198C37.57 20.4287 37.57 20.3529 37.5548 20.2922ZM19.9989 14.5717H31.015L34.2773 19.3666H16.7214L19.9989 14.5717ZM35.2939 36.5128H15.7199V21.6578H35.3091V36.5128H35.2939Z" fill="#AE9D81"/>
</svg>
