<svg width="65" height="64" viewBox="0 0 65 64" fill="none" xmlns="http://www.w3.org/2000/svg">
<g clip-path="url(#clip0_75_368)">
<g clip-path="url(#clip1_75_368)">
<path d="M21.9785 49.3612C22.2188 49.375 22.4448 49.4817 22.6101 49.6594C22.7754 49.837 22.8675 50.0722 22.8675 50.3167C22.8675 50.5611 22.7754 50.7963 22.6101 50.9739C22.4448 51.1516 22.2188 51.2583 21.9785 51.2721C21.7382 51.2583 21.5122 51.1516 21.3469 50.9739C21.1816 50.7963 21.0895 50.5611 21.0895 50.3167C21.0895 50.0722 21.1816 49.837 21.3469 49.6594C21.5122 49.4817 21.7382 49.375 21.9785 49.3612ZM62.0767 64H1.92641C1.68611 63.9862 1.46012 63.8795 1.29481 63.7018C1.1295 63.5242 1.0374 63.289 1.0374 63.0446C1.0374 62.8001 1.1295 62.5649 1.29481 62.3873C1.46012 62.2096 1.68611 62.1029 1.92641 62.0891H4.74713V30.9099H1.92641C1.73881 30.9055 1.55671 30.8447 1.40316 30.7351C1.24961 30.6255 1.13152 30.4722 1.06384 30.2944C0.996152 30.1167 0.981913 29.9225 1.02293 29.7366C1.06394 29.5506 1.15836 29.3812 1.29423 29.2497L31.3679 1.25013C31.5415 1.08921 31.768 1 32.0031 1C32.2381 1 32.4647 1.08921 32.6383 1.25013L62.7059 29.2497C62.8421 29.3815 62.9366 29.5515 62.9774 29.738C63.0182 29.9246 63.0035 30.1192 62.9351 30.2972C62.8666 30.4752 62.7476 30.6285 62.5932 30.7376C62.4387 30.8467 62.2558 30.9067 62.0677 30.9099H59.25V62.0952H62.0677C62.3007 62.1173 62.5172 62.2266 62.6752 62.4019C62.8332 62.5771 62.9213 62.8058 62.9224 63.0435C62.9236 63.2811 62.8376 63.5106 62.6813 63.6874C62.525 63.8642 62.3095 63.9757 62.0767 64ZM59.6684 28.999L32.0001 3.24966L4.34374 28.999H59.6684ZM24.7992 38.5442H14.1455V62.0861H24.7992V38.5442ZM57.3775 30.9007H6.6256V62.0861H12.267V38.5442H11.3278C11.0787 38.5442 10.8398 38.4437 10.6637 38.2648C10.4875 38.0859 10.3886 37.8433 10.3886 37.5903C10.3886 37.3373 10.4875 37.0946 10.6637 36.9158C10.8398 36.7369 11.0787 36.6364 11.3278 36.6364H27.617C27.8661 36.6364 28.105 36.7369 28.2811 36.9158C28.4572 37.0946 28.5562 37.3373 28.5562 37.5903C28.5562 37.8433 28.4572 38.0859 28.2811 38.2648C28.105 38.4437 27.8661 38.5442 27.617 38.5442H26.6777V62.0861H57.3836L57.3775 30.9007ZM31.3799 54.4426H32.3192V37.5903C32.3192 37.3373 32.4181 37.0946 32.5943 36.9158C32.7704 36.7369 33.0093 36.6364 33.2584 36.6364H50.8029C51.052 36.6364 51.2909 36.7369 51.467 36.9158C51.6432 37.0946 51.7421 37.3373 51.7421 37.5903V54.4518H52.6813C52.9216 54.4656 53.1476 54.5723 53.3129 54.7499C53.4783 54.9276 53.5704 55.1628 53.5704 55.4072C53.5704 55.6516 53.4783 55.8868 53.3129 56.0645C53.1476 56.2421 52.9216 56.3488 52.6813 56.3626H31.3799C31.1396 56.3488 30.9136 56.2421 30.7483 56.0645C30.583 55.8868 30.4909 55.6516 30.4909 55.4072C30.4909 55.1628 30.583 54.9276 30.7483 54.7499C30.9136 54.5723 31.1396 54.4656 31.3799 54.4518V54.4426ZM42.9699 45.5364H49.8636V38.5442H42.9699V45.5364ZM42.9699 54.4426H49.8636V47.4534H42.9699V54.4426ZM34.1976 45.5456H41.0914V38.5442H34.1976V45.5456ZM34.1976 54.4518H41.0914V47.4534H34.1976V54.4518ZM32.0001 25.1803C30.2795 25.1429 28.6419 24.4225 27.4381 23.1735C26.2343 21.9245 25.5601 20.2462 25.5601 18.4984C25.5601 16.7506 26.2343 15.0723 27.4381 13.8233C28.6419 12.5743 30.2795 11.8538 32.0001 11.8165C33.7206 11.8538 35.3583 12.5743 36.5621 13.8233C37.7659 15.0723 38.44 16.7506 38.44 18.4984C38.44 20.2462 37.7659 21.9245 36.5621 23.1735C35.3583 24.4225 33.7206 25.1429 32.0001 25.1803ZM36.6059 19.4538H27.3972C27.6137 20.5318 28.1903 21.5007 29.0293 22.1965C29.8683 22.8924 30.9183 23.2725 32.0016 23.2725C33.0848 23.2725 34.1348 22.8924 34.9738 22.1965C35.8129 21.5007 36.3894 20.5318 36.6059 19.4538ZM36.6059 17.543C36.378 16.4748 35.7969 15.518 34.9592 14.8319C34.1215 14.1457 33.0778 13.7715 32.0016 13.7715C30.9254 13.7715 29.8816 14.1457 29.0439 14.8319C28.2063 15.518 27.6251 16.4748 27.3972 17.543H36.6059Z" fill="#AE9D81"/>
</g>
<rect width="56" height="64" transform="translate(30.5)" fill="#F4F1EC"/>
<rect x="34.75" y="12.75" width="5.5" height="6.5" stroke="#AE9D81" stroke-width="1.5"/>
<rect x="34.75" y="23.75" width="5.5" height="6.5" stroke="#AE9D81" stroke-width="1.5"/>
<mask id="path-4-inside-1_75_368" fill="white">
<path d="M34 37C34 36.4477 34.4477 36 35 36H50C50.5523 36 51 36.4477 51 37V64H34V37Z"/>
</mask>
<path d="M34 37C34 36.4477 34.4477 36 35 36H50C50.5523 36 51 36.4477 51 37V64H34V37Z" stroke="#AE9D81" stroke-width="3" mask="url(#path-4-inside-1_75_368)"/>
<rect x="44.75" y="12.75" width="5.5" height="6.5" stroke="#AE9D81" stroke-width="1.5"/>
<rect x="44.75" y="23.75" width="5.5" height="6.5" stroke="#AE9D81" stroke-width="1.5"/>
</g>
<mask id="path-7-inside-2_75_368" fill="white">
<path d="M30 3C30 2.44771 30.4477 2 31 2H55V64H30V3Z"/>
</mask>
<path d="M30 3C30 2.44771 30.4477 2 31 2H55V64H30V3Z" stroke="#AE9D81" stroke-width="4" mask="url(#path-7-inside-2_75_368)"/>
<defs>
<clipPath id="clip0_75_368">
<rect width="64" height="64" fill="white" transform="translate(0.5)"/>
</clipPath>
<clipPath id="clip1_75_368">
<rect width="64" height="64" fill="white" transform="translate(0.5)"/>
</clipPath>
</defs>
</svg>
