<?xml version="1.0" standalone="no"?>
<!DOCTYPE svg PUBLIC "-//W3C//DTD SVG 20010904//EN"
 "http://www.w3.org/TR/2001/REC-SVG-20010904/DTD/svg10.dtd">
<svg version="1.0" xmlns="http://www.w3.org/2000/svg"
 width="286.000000pt" height="79.000000pt" viewBox="0 0 286.000000 79.000000"
 preserveAspectRatio="xMidYMid meet">

<g transform="translate(0.000000,79.000000) scale(0.100000,-0.100000)"
fill="#000000" stroke="none">
<path d="M20 720 c-19 -19 -20 -33 -20 -330 0 -297 1 -311 20 -330 18 -18 33
-20 163 -20 78 0 159 3 180 6 59 10 138 63 174 117 41 61 53 102 60 199 13
177 -69 324 -201 363 -34 10 -97 15 -203 15 -140 0 -155 -2 -173 -20z m304
-100 c53 -12 86 -38 116 -91 21 -38 25 -57 25 -134 0 -76 -4 -98 -25 -140 -40
-80 -72 -95 -201 -95 l-109 0 0 235 0 235 78 0 c42 0 95 -5 116 -10z"/>
<path d="M736 724 c-14 -13 -16 -58 -16 -333 0 -295 1 -319 18 -334 23 -21 51
-22 80 -1 22 15 22 16 22 334 0 318 0 319 -22 334 -29 20 -62 20 -82 0z"/>
<path d="M968 729 c-11 -6 -18 -22 -18 -40 0 -36 235 -594 263 -627 25 -27 48
-28 76 -4 24 20 271 591 271 627 0 53 -76 77 -104 33 -8 -13 -46 -106 -85
-208 -40 -102 -80 -205 -90 -229 l-19 -45 -15 35 c-126 299 -191 446 -199 457
-12 14 -56 15 -80 1z"/>
<path d="M1826 711 c-34 -65 -256 -611 -256 -628 0 -27 19 -43 51 -43 33 0 47
16 79 94 l26 61 149 3 150 2 24 -60 c33 -82 47 -100 80 -100 28 0 61 26 61 49
0 25 -247 610 -268 634 -8 10 -29 17 -48 17 -27 0 -37 -6 -48 -29z m106 -295
c21 -49 38 -93 38 -98 0 -4 -43 -8 -95 -8 -52 0 -95 2 -95 5 0 3 21 55 47 116
53 125 44 126 105 -15z"/>
<path d="M2294 726 c-18 -14 -19 -31 -22 -326 -2 -270 -1 -315 13 -336 19 -29
55 -31 78 -6 15 16 17 48 17 235 0 119 3 217 8 217 4 0 81 -96 172 -212 91
-117 175 -223 187 -235 27 -28 66 -30 93 -3 19 19 20 33 20 333 0 291 -1 315
-18 330 -21 19 -49 22 -72 7 -12 -8 -16 -50 -20 -240 l-5 -230 -184 234 c-100
129 -190 237 -198 240 -24 10 -48 7 -69 -8z"/>
</g>
</svg>
