<svg width="193" height="19" viewBox="0 0 193 19" fill="none" xmlns="http://www.w3.org/2000/svg">
<path d="M7.736 1.2C8.568 1.2 9.344 1.44 10.064 1.92C10.8 2.4 11.392 3.048 11.84 3.864C12.288 4.68 12.512 5.592 12.512 6.6C12.512 7.592 12.288 8.496 11.84 9.312C11.392 10.128 10.8 10.784 10.064 11.28C9.344 11.76 8.568 12 7.736 12H3.32L3.56 11.568V16.536C3.56 16.952 3.432 17.304 3.176 17.592C2.92 17.864 2.584 18 2.168 18C1.768 18 1.44 17.864 1.184 17.592C0.928 17.304 0.8 16.952 0.8 16.536V2.664C0.8 2.248 0.936 1.904 1.208 1.632C1.496 1.344 1.848 1.2 2.264 1.2H7.736ZM7.736 9.264C8.04 9.264 8.336 9.136 8.624 8.88C8.912 8.624 9.152 8.296 9.344 7.896C9.536 7.48 9.632 7.048 9.632 6.6C9.632 6.136 9.536 5.704 9.344 5.304C9.152 4.904 8.912 4.584 8.624 4.344C8.336 4.088 8.04 3.96 7.736 3.96H3.272L3.56 3.528V9.648L3.296 9.264H7.736ZM16.9889 18C16.5409 18 16.1409 17.864 15.7889 17.592C15.4369 17.304 15.2609 16.952 15.2609 16.536V2.664C15.2609 2.248 15.3969 1.904 15.6689 1.632C15.9569 1.344 16.3089 1.2 16.7249 1.2H23.6369C24.4689 1.2 25.2449 1.424 25.9649 1.872C26.7009 2.304 27.2929 2.912 27.7409 3.696C28.1889 4.464 28.4129 5.352 28.4129 6.36C28.4129 6.968 28.2849 7.56 28.0289 8.136C27.7889 8.712 27.4529 9.232 27.0209 9.696C26.6049 10.16 26.1329 10.52 25.6049 10.776L25.6289 10.224C26.0769 10.464 26.4449 10.752 26.7329 11.088C27.0369 11.408 27.2689 11.76 27.4289 12.144C27.6049 12.512 27.7089 12.912 27.7409 13.344C27.8049 13.744 27.8449 14.096 27.8609 14.4C27.8929 14.704 27.9409 14.96 28.0049 15.168C28.0849 15.376 28.2289 15.536 28.4369 15.648C28.7889 15.856 29.0049 16.16 29.0849 16.56C29.1809 16.944 29.0929 17.288 28.8209 17.592C28.6449 17.8 28.4209 17.936 28.1489 18C27.8769 18.048 27.6049 18.048 27.3329 18C27.0609 17.936 26.8369 17.856 26.6609 17.76C26.3889 17.6 26.1169 17.368 25.8449 17.064C25.5729 16.744 25.3489 16.32 25.1729 15.792C25.0129 15.264 24.9329 14.584 24.9329 13.752C24.9329 13.48 24.8849 13.232 24.7889 13.008C24.6929 12.768 24.5569 12.568 24.3809 12.408C24.2049 12.232 23.9809 12.104 23.7089 12.024C23.4369 11.928 23.1169 11.88 22.7489 11.88H17.9009L18.2609 11.328V16.536C18.2609 16.952 18.1489 17.304 17.9249 17.592C17.7009 17.864 17.3889 18 16.9889 18ZM17.9249 9.408H23.5169C23.8049 9.408 24.0849 9.28 24.3569 9.024C24.6289 8.752 24.8529 8.392 25.0289 7.944C25.2049 7.48 25.2929 6.976 25.2929 6.432C25.2929 5.728 25.1009 5.144 24.7169 4.68C24.3489 4.2 23.9489 3.96 23.5169 3.96H17.9729L18.2609 3.192V9.984L17.9249 9.408ZM46.9591 9.6C46.9591 10.8 46.7591 11.92 46.3591 12.96C45.9591 14 45.3911 14.92 44.6551 15.72C43.9351 16.504 43.0711 17.12 42.0631 17.568C41.0711 18.016 39.9831 18.24 38.7991 18.24C37.6151 18.24 36.5271 18.016 35.5351 17.568C34.5431 17.12 33.6791 16.504 32.9431 15.72C32.2231 14.92 31.6631 14 31.2631 12.96C30.8631 11.92 30.6631 10.8 30.6631 9.6C30.6631 8.4 30.8631 7.28 31.2631 6.24C31.6631 5.2 32.2231 4.288 32.9431 3.504C33.6791 2.704 34.5431 2.08 35.5351 1.632C36.5271 1.184 37.6151 0.959999 38.7991 0.959999C39.9831 0.959999 41.0711 1.184 42.0631 1.632C43.0711 2.08 43.9351 2.704 44.6551 3.504C45.3911 4.288 45.9591 5.2 46.3591 6.24C46.7591 7.28 46.9591 8.4 46.9591 9.6ZM43.8391 9.6C43.8391 8.528 43.6231 7.56 43.1911 6.696C42.7591 5.816 42.1671 5.12 41.4151 4.608C40.6631 4.096 39.7911 3.84 38.7991 3.84C37.8071 3.84 36.9351 4.096 36.1831 4.608C35.4311 5.12 34.8391 5.808 34.4071 6.672C33.9911 7.536 33.7831 8.512 33.7831 9.6C33.7831 10.672 33.9911 11.648 34.4071 12.528C34.8391 13.392 35.4311 14.08 36.1831 14.592C36.9351 15.104 37.8071 15.36 38.7991 15.36C39.7911 15.36 40.6631 15.104 41.4151 14.592C42.1671 14.08 42.7591 13.392 43.1911 12.528C43.6231 11.648 43.8391 10.672 43.8391 9.6ZM56.9141 1.2C58.0661 1.2 59.0901 1.416 59.9861 1.848C60.8821 2.28 61.6341 2.888 62.2421 3.672C62.8661 4.44 63.3301 5.336 63.6341 6.36C63.9541 7.368 64.1141 8.448 64.1141 9.6C64.1141 11.152 63.8341 12.568 63.2741 13.848C62.7141 15.112 61.8981 16.12 60.8261 16.872C59.7701 17.624 58.4661 18 56.9141 18H51.1781C50.7621 18 50.4101 17.864 50.1221 17.592C49.8501 17.304 49.7141 16.952 49.7141 16.536V2.664C49.7141 2.248 49.8501 1.904 50.1221 1.632C50.4101 1.344 50.7621 1.2 51.1781 1.2H56.9141ZM56.6741 15.24C57.6821 15.24 58.5061 14.984 59.1461 14.472C59.7861 13.944 60.2501 13.256 60.5381 12.408C60.8421 11.544 60.9941 10.608 60.9941 9.6C60.9941 8.848 60.9061 8.136 60.7301 7.464C60.5701 6.776 60.3141 6.176 59.9621 5.664C59.6101 5.136 59.1621 4.72 58.6181 4.416C58.0741 4.112 57.4261 3.96 56.6741 3.96H52.4741L52.7141 3.744V15.504L52.5701 15.24H56.6741ZM69.8703 16.536C69.8703 16.952 69.7183 17.304 69.4143 17.592C69.1103 17.864 68.7583 18 68.3583 18C67.9103 18 67.5503 17.864 67.2783 17.592C67.0063 17.304 66.8703 16.952 66.8703 16.536V2.664C66.8703 2.248 67.0143 1.904 67.3023 1.632C67.5903 1.344 67.9583 1.2 68.4063 1.2C68.7903 1.2 69.1263 1.344 69.4143 1.632C69.7183 1.904 69.8703 2.248 69.8703 2.664V16.536ZM85.7437 1.152C86.1437 1.152 86.4877 1.288 86.7757 1.56C87.0797 1.816 87.2317 2.144 87.2317 2.544C87.2317 2.752 87.1837 2.968 87.0877 3.192L81.1597 17.064C81.0157 17.384 80.8077 17.624 80.5357 17.784C80.2797 17.928 80.0157 18 79.7437 18C79.4877 17.984 79.2397 17.904 78.9997 17.76C78.7597 17.6 78.5757 17.376 78.4477 17.088L72.5197 3.168C72.4717 3.072 72.4397 2.976 72.4237 2.88C72.4077 2.768 72.3997 2.664 72.3997 2.568C72.3997 2.104 72.5677 1.752 72.9037 1.512C73.2397 1.256 73.5597 1.128 73.8637 1.128C74.4717 1.128 74.9117 1.44 75.1837 2.064L80.4397 14.424L79.5997 14.448L84.4237 2.064C84.6957 1.456 85.1357 1.152 85.7437 1.152ZM95.093 4.968L89.909 17.16C89.797 17.464 89.621 17.704 89.381 17.88C89.157 18.04 88.909 18.12 88.637 18.12C88.205 18.12 87.885 18 87.677 17.76C87.469 17.52 87.365 17.224 87.365 16.872C87.365 16.728 87.389 16.576 87.437 16.416L93.413 2.064C93.541 1.744 93.733 1.496 93.989 1.32C94.261 1.144 94.549 1.072 94.853 1.104C95.141 1.104 95.405 1.192 95.645 1.368C95.901 1.528 96.085 1.76 96.197 2.064L102.101 16.128C102.181 16.336 102.221 16.528 102.221 16.704C102.221 17.136 102.077 17.48 101.789 17.736C101.517 17.992 101.213 18.12 100.877 18.12C100.589 18.12 100.325 18.032 100.085 17.856C99.861 17.68 99.685 17.44 99.557 17.136L94.397 5.112L95.093 4.968ZM90.653 14.232L91.973 11.472H98.453L98.909 14.232H90.653ZM116.997 1.2C117.381 1.2 117.693 1.328 117.933 1.584C118.173 1.84 118.293 2.16 118.293 2.544V16.536C118.293 16.952 118.149 17.304 117.861 17.592C117.589 17.864 117.245 18 116.829 18C116.621 18 116.405 17.968 116.181 17.904C115.973 17.824 115.813 17.72 115.701 17.592L106.269 5.616L106.893 5.232V16.656C106.893 17.04 106.765 17.36 106.509 17.616C106.269 17.872 105.949 18 105.549 18C105.165 18 104.853 17.872 104.613 17.616C104.373 17.36 104.253 17.04 104.253 16.656V2.664C104.253 2.248 104.389 1.904 104.661 1.632C104.949 1.344 105.301 1.2 105.717 1.2C105.941 1.2 106.173 1.248 106.413 1.344C106.653 1.424 106.829 1.552 106.941 1.728L116.085 13.392L115.677 13.68V2.544C115.677 2.16 115.797 1.84 116.037 1.584C116.277 1.328 116.597 1.2 116.997 1.2ZM126.942 18.24C126.078 18.24 125.294 18.064 124.59 17.712C123.902 17.344 123.31 16.848 122.814 16.224C122.334 15.6 121.958 14.896 121.686 14.112C121.43 13.328 121.302 12.52 121.302 11.688C121.302 11.144 121.358 10.488 121.47 9.72C121.598 8.952 121.814 8.144 122.118 7.296C122.422 6.448 122.846 5.624 123.39 4.824C123.934 4.024 124.622 3.304 125.454 2.664C126.302 2.024 127.334 1.536 128.55 1.2C128.742 1.152 128.926 1.128 129.102 1.128C129.47 1.128 129.798 1.224 130.086 1.416C130.39 1.608 130.542 1.96 130.542 2.472C130.542 2.824 130.422 3.136 130.182 3.408C129.958 3.664 129.654 3.848 129.27 3.96C128.726 4.12 128.182 4.36 127.638 4.68C127.11 4.984 126.614 5.36 126.15 5.808C125.702 6.256 125.31 6.768 124.974 7.344C124.654 7.904 124.422 8.512 124.278 9.168L123.63 9.144C123.854 8.872 124.126 8.584 124.446 8.28C124.782 7.96 125.182 7.688 125.646 7.464C126.126 7.224 126.686 7.104 127.326 7.104C127.95 7.104 128.566 7.248 129.174 7.536C129.798 7.824 130.358 8.224 130.854 8.736C131.366 9.232 131.774 9.824 132.078 10.512C132.382 11.184 132.534 11.904 132.534 12.672C132.534 13.696 132.278 14.632 131.766 15.48C131.27 16.328 130.598 17 129.75 17.496C128.918 17.992 127.982 18.24 126.942 18.24ZM126.942 15.6C127.454 15.6 127.91 15.472 128.31 15.216C128.726 14.96 129.054 14.608 129.294 14.16C129.534 13.712 129.654 13.216 129.654 12.672C129.654 12.112 129.534 11.616 129.294 11.184C129.054 10.736 128.726 10.384 128.31 10.128C127.91 9.872 127.454 9.744 126.942 9.744C126.43 9.744 125.966 9.872 125.55 10.128C125.15 10.384 124.83 10.736 124.59 11.184C124.35 11.616 124.23 12.112 124.23 12.672C124.23 13.216 124.35 13.712 124.59 14.16C124.83 14.608 125.15 14.96 125.55 15.216C125.966 15.472 126.43 15.6 126.942 15.6ZM136.055 14.616C136.199 14.616 136.351 14.64 136.511 14.688C136.687 14.736 136.879 14.832 137.087 14.976C137.359 15.184 137.679 15.368 138.047 15.528C138.431 15.688 138.871 15.768 139.367 15.768C139.863 15.768 140.327 15.648 140.759 15.408C141.207 15.152 141.575 14.8 141.863 14.352C142.151 13.888 142.295 13.336 142.295 12.696C142.295 12.088 142.167 11.584 141.911 11.184C141.671 10.784 141.343 10.48 140.927 10.272C140.527 10.064 140.095 9.96 139.631 9.96C139.279 9.96 138.983 9.992 138.743 10.056C138.519 10.12 138.295 10.192 138.071 10.272C137.863 10.336 137.615 10.368 137.327 10.368C136.959 10.368 136.671 10.24 136.463 9.984C136.271 9.728 136.175 9.424 136.175 9.072C136.175 8.848 136.215 8.648 136.295 8.472C136.391 8.296 136.527 8.104 136.703 7.896L140.927 3.408L141.575 3.96H135.671C135.287 3.96 134.967 3.832 134.711 3.576C134.455 3.32 134.327 3 134.327 2.616C134.327 2.248 134.455 1.944 134.711 1.704C134.967 1.448 135.287 1.32 135.671 1.32H143.015C143.511 1.32 143.879 1.456 144.119 1.728C144.375 2 144.503 2.344 144.503 2.76C144.503 2.968 144.447 3.176 144.335 3.384C144.223 3.576 144.087 3.752 143.927 3.912L139.679 8.472L139.031 7.656C139.207 7.576 139.447 7.504 139.751 7.44C140.071 7.376 140.335 7.344 140.543 7.344C141.487 7.344 142.303 7.592 142.991 8.088C143.695 8.568 144.231 9.2 144.599 9.984C144.983 10.752 145.175 11.584 145.175 12.48C145.175 13.664 144.911 14.688 144.383 15.552C143.855 16.416 143.111 17.08 142.151 17.544C141.191 18.008 140.071 18.24 138.791 18.24C138.199 18.24 137.615 18.168 137.039 18.024C136.463 17.88 135.967 17.688 135.551 17.448C135.199 17.256 134.959 17.048 134.831 16.824C134.719 16.584 134.663 16.36 134.663 16.152C134.663 15.784 134.791 15.44 135.047 15.12C135.319 14.784 135.655 14.616 136.055 14.616ZM153.746 18C153.298 18 152.93 17.864 152.642 17.592C152.354 17.304 152.21 16.952 152.21 16.536V2.616H155.33V16.536C155.33 16.952 155.178 17.304 154.874 17.592C154.586 17.864 154.21 18 153.746 18ZM148.442 3.96C148.026 3.96 147.674 3.832 147.386 3.576C147.114 3.32 146.978 2.984 146.978 2.568C146.978 2.152 147.114 1.824 147.386 1.584C147.674 1.328 148.026 1.2 148.442 1.2H159.098C159.514 1.2 159.858 1.328 160.13 1.584C160.418 1.84 160.562 2.176 160.562 2.592C160.562 3.008 160.418 3.344 160.13 3.6C159.858 3.84 159.514 3.96 159.098 3.96H148.442ZM178.069 9.6C178.069 10.8 177.869 11.92 177.469 12.96C177.069 14 176.501 14.92 175.765 15.72C175.045 16.504 174.181 17.12 173.173 17.568C172.181 18.016 171.093 18.24 169.909 18.24C168.725 18.24 167.637 18.016 166.645 17.568C165.653 17.12 164.789 16.504 164.053 15.72C163.333 14.92 162.773 14 162.373 12.96C161.973 11.92 161.773 10.8 161.773 9.6C161.773 8.4 161.973 7.28 162.373 6.24C162.773 5.2 163.333 4.288 164.053 3.504C164.789 2.704 165.653 2.08 166.645 1.632C167.637 1.184 168.725 0.959999 169.909 0.959999C171.093 0.959999 172.181 1.184 173.173 1.632C174.181 2.08 175.045 2.704 175.765 3.504C176.501 4.288 177.069 5.2 177.469 6.24C177.869 7.28 178.069 8.4 178.069 9.6ZM174.949 9.6C174.949 8.528 174.733 7.56 174.301 6.696C173.869 5.816 173.277 5.12 172.525 4.608C171.773 4.096 170.901 3.84 169.909 3.84C168.917 3.84 168.045 4.096 167.293 4.608C166.541 5.12 165.949 5.808 165.517 6.672C165.101 7.536 164.893 8.512 164.893 9.6C164.893 10.672 165.101 11.648 165.517 12.528C165.949 13.392 166.541 14.08 167.293 14.592C168.045 15.104 168.917 15.36 169.909 15.36C170.901 15.36 171.773 15.104 172.525 14.592C173.277 14.08 173.869 13.392 174.301 12.528C174.733 11.648 174.949 10.672 174.949 9.6ZM187.759 1.2C188.591 1.2 189.367 1.44 190.087 1.92C190.823 2.4 191.415 3.048 191.863 3.864C192.311 4.68 192.535 5.592 192.535 6.6C192.535 7.592 192.311 8.496 191.863 9.312C191.415 10.128 190.823 10.784 190.087 11.28C189.367 11.76 188.591 12 187.759 12H183.343L183.583 11.568V16.536C183.583 16.952 183.455 17.304 183.199 17.592C182.943 17.864 182.607 18 182.191 18C181.791 18 181.463 17.864 181.207 17.592C180.951 17.304 180.823 16.952 180.823 16.536V2.664C180.823 2.248 180.959 1.904 181.231 1.632C181.519 1.344 181.871 1.2 182.287 1.2H187.759ZM187.759 9.264C188.063 9.264 188.359 9.136 188.647 8.88C188.935 8.624 189.175 8.296 189.367 7.896C189.559 7.48 189.655 7.048 189.655 6.6C189.655 6.136 189.559 5.704 189.367 5.304C189.175 4.904 188.935 4.584 188.647 4.344C188.359 4.088 188.063 3.96 187.759 3.96H183.295L183.583 3.528V9.648L183.319 9.264H187.759Z" fill="#2F2F2F"/>
</svg>
