<svg width="54" height="54" viewBox="0 0 54 54" fill="none" xmlns="http://www.w3.org/2000/svg">
<path d="M27 35.3078C33.8823 35.3078 39.4615 29.7286 39.4615 22.8463C39.4615 15.964 33.8823 10.3848 27 10.3848C20.1177 10.3848 14.5385 15.964 14.5385 22.8463C14.5385 29.7286 20.1177 35.3078 27 35.3078Z" fill="white"/>
<path d="M27 4.5C22.2261 4.5 17.6477 6.39642 14.272 9.77208C10.8964 13.1477 8.99997 17.7261 8.99997 22.5C8.99997 34.65 24.75 48.375 25.5375 48.96L27 50.22L28.4625 48.96C29.25 48.375 45 34.65 45 22.5C45 17.7261 43.1035 13.1477 39.7279 9.77208C36.3522 6.39642 31.7739 4.5 27 4.5ZM27 31.5C25.2199 31.5 23.4799 30.9722 21.9998 29.9832C20.5198 28.9943 19.3662 27.5887 18.6851 25.9442C18.0039 24.2996 17.8256 22.49 18.1729 20.7442C18.5202 18.9984 19.3773 17.3947 20.636 16.136C21.8947 14.8774 23.4983 14.0202 25.2442 13.6729C26.99 13.3257 28.7996 13.5039 30.4441 14.1851C32.0887 14.8663 33.4943 16.0198 34.4832 17.4999C35.4721 18.9799 36 20.72 36 22.5C36 24.8869 35.0518 27.1761 33.3639 28.864C31.6761 30.5518 29.3869 31.5 27 31.5Z" fill="#838520"/>
<path d="M27 27C29.4853 27 31.5 24.9853 31.5 22.5C31.5 20.0147 29.4853 18 27 18C24.5147 18 22.5 20.0147 22.5 22.5C22.5 24.9853 24.5147 27 27 27Z" fill="#838520"/>
</svg>
