<svg width="64" height="64" viewBox="0 0 64 64" fill="none" xmlns="http://www.w3.org/2000/svg">
<path d="M3 52H1C1 56.7 4.8 60.5 9.5 60.5H63V8.5H10.5V1H9.5C4.8 1 1 4.8 1 9.5V52H3C3 48.4 5.9 45.5 9.5 45.5H10.5V10.5H61V58.5H9.5C5.9 58.5 3 55.6 3 52ZM8.5 43.55C6.3 43.8 4.35 44.9 3 46.5V9.5C3 6.25 5.4 3.55 8.5 3.1V43.55Z" fill="#AE9D81"/>
<g clip-path="url(#clip0_69_128)">
<path d="M18.6875 28.7799V24.3399C18.6875 23.6799 19.25 23.1399 19.9375 23.1399H33.125C33.8125 23.1399 34.375 23.6799 34.375 24.3399V34.5399" stroke="#AE9D81" stroke-width="2"/>
<path d="M34.375 34.6V24.4C34.375 23.74 34.9375 23.2 35.625 23.2H49.4375C50.125 23.2 50.6875 23.74 50.6875 24.4V28.84" stroke="#AE9D81" stroke-width="2"/>
<path fill-rule="evenodd" clip-rule="evenodd" d="M52.5625 29.2H50.625C49.9375 29.2 49.375 29.74 49.375 30.4V34.6H20V30.4C20 29.74 19.4375 29.2 18.75 29.2H16.875C16.1875 29.2 15.625 29.74 15.625 30.4V38.26C15.625 38.92 16.1875 39.46 16.875 39.46H18.75V40.66C18.75 41.32 19.3125 41.86 20 41.86H21.9375C22.625 41.86 23.1875 41.32 23.1875 40.66V39.46H45.6875V40.66C45.6875 41.32 46.25 41.86 46.9375 41.86H49.5C50.1875 41.86 50.75 41.32 50.75 40.66V39.46H52.625C53.3125 39.46 53.875 38.92 53.875 38.26V30.4C53.75 29.74 53.1875 29.2 52.5625 29.2Z" stroke="#AE9D81" stroke-width="2"/>
</g>
<defs>
<clipPath id="clip0_69_128">
<rect width="40" height="21" fill="white" transform="translate(15 22)"/>
</clipPath>
</defs>
</svg>
