<svg width="64" height="64" viewBox="0 0 64 64" fill="none" xmlns="http://www.w3.org/2000/svg">
<path d="M11.2399 14.0737C9.17468 14.0737 7.51025 15.8361 7.63154 17.8978C7.63437 17.9063 7.63625 17.9119 7.63911 17.9204L8.33388 26.7054C8.31622 26.7082 8.29802 26.7062 8.28047 26.7082C7.55506 26.8284 6.89264 27.1168 6.2533 27.4085C6.24763 27.4114 6.24091 27.417 6.2349 27.4199C4.16309 28.5356 2.75 30.7269 2.75 33.2373C2.75 33.9093 2.86162 34.5447 3.0596 35.1409C3.27261 35.8624 3.61401 36.556 4.09346 37.1865C4.33208 37.5004 4.62664 37.728 4.9375 37.931C5.41487 38.3527 5.94688 38.7175 6.52422 39.0072C6.55149 41.2396 6.52422 43.348 6.52422 45.5587C6.52422 46.3939 7.22244 47.0975 8.0575 47.0975H8.41317V48.9847C8.41506 49.5032 8.83447 49.9246 9.35305 49.9264C9.87433 49.9284 10.2985 49.5059 10.3003 48.9847V47.0975H53.7001V48.9847C53.702 49.5059 54.1261 49.9284 54.6474 49.9264C55.166 49.9246 55.5855 49.5032 55.5872 48.9847V47.0975H55.9356C56.7707 47.0975 57.4762 46.3939 57.4762 45.5587C57.4524 43.3346 57.4762 41.2298 57.4762 38.9999C59.8362 37.8541 61.1213 35.7025 61.25 32.6634C60.8968 28.9358 58.6375 27.4124 55.775 26.7244C55.7623 26.7224 55.7489 26.7229 55.7363 26.7217L56.3611 17.9145C56.3611 17.9117 56.3611 17.9032 56.3611 17.9003C56.4823 15.8387 54.8253 14.0764 52.7601 14.0764L11.2399 14.0737ZM11.2399 15.9627H52.76C53.7662 15.9627 54.5385 16.7827 54.4794 17.7871L53.8436 26.6864C52.1596 26.8434 50.5415 28.0782 49.4963 29.0343C43.778 26.8525 37.7982 26.5367 31.9963 30.1012C25.8239 26.4333 19.959 27.0512 14.4834 29.0619C13.4468 27.773 11.5873 26.999 10.2245 26.6975L9.5205 17.7871C9.46144 16.7827 10.2337 15.9627 11.2399 15.9627H11.2399ZM15.9282 20.6768C15.69 20.6853 15.4635 20.7817 15.2942 20.9495C14.9246 21.3182 14.9246 21.9169 15.2942 22.2855L15.5688 22.5619L15.2942 22.8367C14.9234 23.2055 14.9234 23.8057 15.2942 24.1746C15.6623 24.5405 16.2568 24.5405 16.6248 24.1746L16.9031 23.8965L17.1814 24.1746C17.5494 24.5405 18.1439 24.5405 18.5119 24.1746C18.8828 23.8057 18.8828 23.2055 18.5119 22.8367L18.2373 22.5619L18.5119 22.2855C18.8815 21.9169 18.8815 21.3182 18.5119 20.9495C18.3272 20.7667 18.0752 20.6677 17.8153 20.6768C17.5771 20.6853 17.3506 20.7817 17.1814 20.9495L16.9031 21.2276L16.6248 20.9495C16.4401 20.7667 16.1881 20.6677 15.9282 20.6768ZM31.0288 20.6768C30.788 20.6853 30.5586 20.7803 30.3874 20.9495C30.0178 21.3182 30.0178 21.9169 30.3874 22.2855L30.662 22.5619L30.3874 22.8367C30.0166 23.2055 30.0166 23.8057 30.3874 24.1746C30.7563 24.5454 31.3565 24.5454 31.7254 24.1746L32 23.8998L32.2746 24.1746C32.6434 24.5454 33.2436 24.5454 33.6125 24.1746C33.9833 23.8057 33.9833 23.2055 33.6125 22.8367L33.3379 22.5619L33.6125 22.2855C33.9821 21.9169 33.9821 21.3182 33.6125 20.9495C33.4278 20.7667 33.1757 20.6677 32.9159 20.6768C32.6751 20.6853 32.4457 20.7803 32.2746 20.9495L32 21.2242L31.7254 20.9495C31.5407 20.7667 31.2886 20.6677 31.0288 20.6768ZM46.122 20.6768C45.8838 20.6853 45.6573 20.7817 45.488 20.9495C45.1184 21.3182 45.1184 21.9169 45.488 22.2855L45.7626 22.5619L45.488 22.8367C45.1172 23.2055 45.1172 23.8057 45.488 24.1746C45.856 24.5405 46.4505 24.5405 46.8186 24.1746L47.0969 23.8965L47.3751 24.1746C47.7432 24.5405 48.3376 24.5405 48.7057 24.1746C49.0765 23.8057 49.0765 23.2055 48.7057 22.8367L48.4311 22.5619L48.7057 22.2855C49.0753 21.9169 49.0753 21.3182 48.7057 20.9495C48.521 20.7667 48.2689 20.6677 48.0091 20.6768C47.7709 20.6853 47.5444 20.7817 47.3751 20.9495L47.0969 21.2276L46.8186 20.9495C46.6339 20.7667 46.3818 20.6677 46.122 20.6768ZM58.3534 36.0907C56.9911 37.8821 54.5707 38.4582 52.5446 37.4783C52.0754 37.2513 51.511 37.4463 51.2841 37.9169C51.057 38.3861 51.2534 38.9506 51.7227 39.1775C52.9578 39.7748 54.2998 39.7917 55.5835 39.5958L55.5875 41.4332H49.9262C49.9205 39.1848 49.9083 36.8113 49.9078 34.6071C49.9134 33.4423 49.992 32.5634 50.1455 31.8815C50.3567 29.8017 53.3685 28.1316 54.7378 28.4217C59.2925 28.7277 60.8849 33.5108 58.3536 36.0907H58.3534ZM9.11506 28.5256C11.2771 28.5398 12.8926 29.5464 13.6412 31.2752C13.929 32.0364 14.0743 33.1064 14.0743 34.7324V34.7552C14.0714 34.7969 14.0714 34.8385 14.0743 34.8805V41.4338H8.41294L8.41671 39.5393C9.68579 39.7232 11.0102 39.7178 12.2296 39.1283C12.6989 38.9015 12.8953 38.337 12.6682 37.8678C12.4413 37.3985 11.8769 37.2021 11.4077 37.4292C9.38168 38.4091 6.96123 37.8347 5.59894 36.0433C4.24763 34.2663 4.40802 31.7776 5.90486 30.0742C6.21863 29.7172 6.56881 29.4329 6.93687 29.1952C7.58031 28.8101 8.31695 28.5656 9.11515 28.5262L9.11506 28.5256ZM41.0356 29.1043C43.5277 29.0618 46.0314 29.6347 48.5675 30.5823C48.1451 31.6318 48.0402 32.8897 48.0348 33.87H15.941C15.983 32.7456 15.7983 31.531 15.4158 30.6283C20.6451 28.7454 25.7661 28.2265 31.4949 31.8502C31.8096 32.0475 32.2107 32.0418 32.5196 31.836C35.3677 29.9692 38.1947 29.1531 41.0355 29.1048L41.0356 29.1043ZM9.35094 31.9976C8.83271 31.9996 8.4131 32.4192 8.41108 32.9374C8.40919 33.4586 8.82983 33.8826 9.35094 33.8847C9.87494 33.8867 10.3002 33.4614 10.2982 32.9374C10.2963 32.4163 9.87206 31.9956 9.35094 31.9976ZM54.6416 31.9976C54.1234 31.9996 53.7038 32.4192 53.7017 32.9374C53.6998 33.4586 54.1205 33.8826 54.6416 33.8847C55.1656 33.8867 55.5909 33.4614 55.5888 32.9374C55.587 32.4163 55.1627 31.9956 54.6416 31.9976ZM15.9558 35.7571H48.0183L48.035 41.4332H15.9558V35.7571ZM18.7865 37.659C18.2675 37.66 17.8468 38.0798 17.8448 38.5988C17.8429 39.1206 18.2647 39.545 18.7865 39.546C19.3105 39.5481 19.7358 39.1227 19.7337 38.5988C19.7319 38.0776 19.3076 37.6569 18.7865 37.659ZM27.2785 37.659C26.7595 37.66 26.3388 38.0798 26.3368 38.5988C26.3349 39.1206 26.7567 39.545 27.2785 39.546C27.8025 39.5481 28.2278 39.1227 28.2257 38.5988C28.2239 38.0776 27.7996 37.6569 27.2785 37.659ZM36.7141 37.659C36.1958 37.6609 35.7762 38.0805 35.7742 38.5988C35.7723 39.1199 36.1929 39.544 36.7141 39.546C37.238 39.5481 37.6633 39.1227 37.6613 38.5988C37.6594 38.0776 37.2352 37.6569 36.7141 37.659ZM45.206 37.659C44.6878 37.6609 44.2682 38.0805 44.2662 38.5988C44.2643 39.1199 44.6849 39.544 45.206 39.546C45.73 39.5481 46.1553 39.1227 46.1533 38.5988C46.1514 38.0776 45.7272 37.6569 45.206 37.659ZM8.41292 43.3221H15.016H55.587V45.2092H8.41292V43.3221Z" fill="#AE9D81"/>
</svg>
