<svg width="64" height="64" viewBox="0 0 64 64" fill="none" xmlns="http://www.w3.org/2000/svg">
<path d="M60.9995 29.9954C60.9988 29.9363 60.9929 29.8774 60.9817 29.8193C60.9793 29.8062 60.9769 29.7932 60.9739 29.7802C60.9628 29.7285 60.9476 29.6779 60.9284 29.6287L60.9217 29.6118L60.921 29.6101L57.4313 20.8857C57.2103 20.3279 56.8263 19.8497 56.3295 19.5133C55.8326 19.1769 55.2459 18.998 54.6459 19H44.9999V16C44.9999 15.7348 44.8946 15.4804 44.707 15.2929C44.5195 15.1054 44.2652 15 43.9999 15H5.99994C5.20456 15.0009 4.442 15.3172 3.87958 15.8796C3.31716 16.4421 3.00081 17.2046 2.99994 18V46C3.00081 46.7954 3.31716 47.5579 3.87958 48.1204C4.442 48.6828 5.20456 48.9991 5.99994 49H10.0725C10.3128 50.6659 11.1453 52.1895 12.4176 53.2915C13.6899 54.3934 15.3168 55 16.9999 55C18.6831 55 20.3099 54.3934 21.5822 53.2915C22.8545 52.1895 23.6871 50.6659 23.9274 49H40.0725C40.3128 50.6659 41.1453 52.1895 42.4176 53.2915C43.6899 54.3934 45.3168 55 46.9999 55C48.6831 55 50.3099 54.3934 51.5822 53.2915C52.8545 52.1895 53.6871 50.6659 53.9274 49H57.9999C58.7953 48.9991 59.5579 48.6828 60.1203 48.1203C60.6827 47.5579 60.999 46.7954 60.9999 46V30L60.9995 29.9954ZM54.6459 21C54.8459 20.9994 55.0415 21.059 55.2071 21.1711C55.3727 21.2833 55.5007 21.4427 55.5744 21.6287L58.5229 29H44.9999V21H54.6459ZM5.99994 17H42.9999V35H4.99994V18C5.00022 17.7349 5.10567 17.4807 5.29315 17.2932C5.48062 17.1057 5.73481 17.0003 5.99994 17ZM4.99994 46V37H42.9999V42.2604C42.2138 42.8082 41.5485 43.5115 41.0449 44.3267C40.5414 45.142 40.2104 46.0518 40.0725 47H23.9274C23.6871 45.3341 22.8545 43.8105 21.5822 42.7085C20.3099 41.6065 18.6831 41 16.9999 41C15.3168 41 13.6899 41.6065 12.4176 42.7085C11.1453 43.8105 10.3128 45.3341 10.0725 47H5.99994C5.73481 46.9997 5.48062 46.8943 5.29315 46.7068C5.10567 46.5193 5.00022 46.2651 4.99994 46ZM16.9999 53C16.011 53 15.0443 52.7068 14.2221 52.1573C13.3998 51.6079 12.759 50.827 12.3805 49.9134C12.0021 48.9998 11.9031 47.9945 12.096 47.0245C12.2889 46.0546 12.7651 45.1637 13.4644 44.4645C14.1637 43.7652 15.0546 43.289 16.0245 43.0961C16.9944 42.9031 17.9997 43.0022 18.9134 43.3806C19.827 43.759 20.6079 44.3999 21.1573 45.2221C21.7067 46.0444 21.9999 47.0111 21.9999 48C21.9985 49.3256 21.4712 50.5965 20.5338 51.5339C19.5965 52.4713 18.3256 52.9985 16.9999 53ZM46.9999 53C46.011 53 45.0443 52.7068 44.2221 52.1573C43.3998 51.6079 42.759 50.827 42.3805 49.9134C42.0021 48.9998 41.9031 47.9945 42.096 47.0245C42.2889 46.0546 42.7651 45.1637 43.4644 44.4645C44.1637 43.7652 45.0546 43.289 46.0245 43.0961C46.9944 42.9031 47.9997 43.0022 48.9134 43.3806C49.827 43.759 50.6079 44.3999 51.1573 45.2221C51.7067 46.0444 51.9999 47.0111 51.9999 48C51.9985 49.3256 51.4712 50.5965 50.5338 51.5339C49.5965 52.4713 48.3256 52.9985 46.9999 53ZM58.9999 46C58.9997 46.2651 58.8942 46.5193 58.7067 46.7068C58.5193 46.8943 58.2651 46.9997 57.9999 47H53.9274C53.7842 46.0046 53.4281 45.0518 52.8834 44.2065C52.3387 43.3612 51.6181 42.6433 50.7709 42.1016C49.9236 41.56 48.9695 41.2073 47.9736 41.0677C46.9777 40.9281 45.9635 41.0049 44.9999 41.2927V31H58.9999V46Z" fill="#AE9D81"/>
</svg>
