<svg width="40" height="40" viewBox="0 0 40 40" fill="none" xmlns="http://www.w3.org/2000/svg">
<path fill-rule="evenodd" clip-rule="evenodd" d="M35.9936 8.44659C35.9916 8.46354 35.9892 8.48054 35.9864 8.49756C35.9864 8.49778 35.9863 8.49799 35.9863 8.49821L31.8197 33.4976C31.7289 34.0423 31.2137 34.4104 30.6689 34.3196C30.1242 34.2288 29.7561 33.7135 29.8469 33.1688L33.6189 10.5369L15.578 23.3159C15.1273 23.6351 14.5032 23.5285 14.184 23.0778C13.8648 22.6272 13.9713 22.003 14.422 21.6838L34.422 7.51714C34.5321 7.43917 34.6525 7.3866 34.7763 7.35824C34.9001 7.32979 35.0313 7.32459 35.1644 7.34677C35.1651 7.34688 35.1657 7.34699 35.1664 7.3471C35.4194 7.38978 35.656 7.52923 35.816 7.75515C35.894 7.86522 35.9466 7.98564 35.9749 8.10944C35.9997 8.21738 36.0069 8.33103 35.9936 8.44659Z" fill="white"/>
<path fill-rule="evenodd" clip-rule="evenodd" d="M35.9302 7.96611C36.1329 8.47982 35.8809 9.06065 35.3672 9.26343L3.7005 21.7634C3.18679 21.9662 2.60596 21.7142 2.40318 21.2004C2.2004 20.6867 2.45246 20.1059 2.96617 19.9031L34.6328 7.40312C35.1465 7.20034 35.7274 7.4524 35.9302 7.96611Z" fill="white"/>
<path fill-rule="evenodd" clip-rule="evenodd" d="M14.1747 21.9354C14.4866 21.4796 15.1089 21.3629 15.5647 21.6748L31.398 32.5081C31.8538 32.82 31.9705 33.4423 31.6586 33.8981C31.3468 34.3539 30.7245 34.4706 30.2687 34.1587L14.4353 23.3254C13.9795 23.0135 13.8628 22.3912 14.1747 21.9354Z" fill="white"/>
<path fill-rule="evenodd" clip-rule="evenodd" d="M2.34338 20.6917C2.42149 20.145 2.92802 19.7651 3.47475 19.8432L15.1414 21.5099C15.6882 21.588 16.0681 22.0945 15.99 22.6412C15.9118 23.188 15.4053 23.5679 14.8586 23.4898L3.19191 21.8231C2.64518 21.745 2.26528 21.2384 2.34338 20.6917Z" fill="white"/>
<path fill-rule="evenodd" clip-rule="evenodd" d="M15 21.5C15.5523 21.5 16 21.9477 16 22.5V29.2525L19.2929 25.9596C19.6834 25.569 20.3166 25.569 20.7071 25.9596C21.0976 26.3501 21.0976 26.9832 20.7071 27.3738L15.7076 32.3733C15.7074 32.3735 15.7073 32.3736 15.7071 32.3738C15.7064 32.3745 15.7057 32.3752 15.705 32.3759C15.5108 32.569 15.257 32.6659 15.003 32.6667C15.002 32.6667 15.001 32.6667 15 32.6667C14.999 32.6667 14.998 32.6667 14.997 32.6667C14.8625 32.6663 14.7343 32.6393 14.6172 32.5908C14.5001 32.5423 14.3904 32.4707 14.295 32.3759C14.2936 32.3745 14.2922 32.3731 14.2908 32.3716C14.1111 32.1909 14 31.9417 14 31.6667V22.5C14 21.9477 14.4477 21.5 15 21.5Z" fill="white"/>
</svg>
