<svg width="40" height="40" viewBox="0 0 40 40" fill="none" xmlns="http://www.w3.org/2000/svg">
<path d="M19.625 5C17.25 5 11.375 5.25 8.25001 8.25C6.00001 10.375 5.12501 13.625 5.00001 17.5C4.75001 23.625 6.12501 27.5 8.37501 29.5C8.87501 29.875 10.125 30.875 12.5 31.625V34.75C12.5 34.75 12.5 36 13.25 36.25C13.375 36.25 13.5 36.375 13.625 36.375C14.375 36.375 15 35.5 15.875 34.625C16.625 33.75 17.25 33.125 17.625 32.5H20.375C22.75 32.5 28.625 32.25 31.75 29.25C34 27 34.875 23.75 34.875 19.625C35 19 35 18.25 35 17.5C34.875 12.875 33.5 9.75 31.625 8C30.875 7.375 27.625 5 20.625 5H19.625ZM19.375 7.375H20.5C27.125 7.375 29.625 9.5 29.875 9.75C31.375 11 32.25 13.75 32.375 17.375V17.875C32.5 18.625 32.5 19.25 32.5 19.625C32.375 23.375 31.625 25.875 30.125 27.5C27.5 29.875 22 30 20.5 30H18.125L16.125 32.25L14.875 33.625L14.625 34C14.375 34.25 14 34.75 13.75 34.875V29.25C11.25 28.625 10.25 27.75 10 27.5C8.25001 26 7.25001 22.375 7.50001 17.5V16.25C7.75001 13.25 8.50001 11.25 9.75001 9.875C12.375 7.5 17.875 7.375 19.375 7.375ZM19.25 10.125C18.625 10.125 18.625 11 19.25 11C23.875 11 27.875 14.125 27.875 20C27.875 20.625 28.75 20.625 28.75 20C28.75 13.625 24.5 10 19.25 10.125ZM14.2963 11.2812C14.013 11.2473 13.7278 11.3254 13.5013 11.4988C12.2513 12.1238 11 13.3762 11.375 14.7512C11.375 14.7512 11.625 15.875 13 18.25C13.75 19.375 14.375 20.375 15 21.125C15.625 22 16.625 23 17.625 23.75C19.625 25.375 22.75 27 24.125 27.375C25.375 27.75 26.75 26.5 27.375 25.25C27.625 24.75 27.5 24.125 27 23.75C26.25 23 25 22.125 24.125 21.625C23.5 21.25 22.75 21.5 22.5 21.875L21.875 22.625C21.625 23 21 23 21 23C16.875 21.875 15.75 17.625 15.75 17.625C15.75 17.625 15.75 17.125 16.125 16.75L16.875 16.125C17.25 15.875 17.5 15.125 17.125 14.5C16.875 14.125 16.5 13.375 16.125 13C15.75 12.5 15 11.625 15 11.625C14.8104 11.4351 14.5626 11.3141 14.2963 11.2812ZM20.125 12.625C19.5 12.5 19.375 13.5 20 13.5C23.5 13.75 25.5 16.125 25.375 19.125C25.25 19.75 26.25 19.75 26.25 19.125C26.375 15.625 24.125 12.75 20.125 12.625ZM20.5 15C19.875 14.875 19.875 15.875 20.5 15.875C22 15.875 22.75 16.75 22.75 18.25C22.875 18.875 23.75 18.875 23.75 18.25C23.625 16.25 22.5 15 20.5 15Z" fill="white"/>
</svg>
