<svg width="59" height="59" viewBox="0 0 59 59" fill="none" xmlns="http://www.w3.org/2000/svg">
<path d="M57.7904 30.2917H53.5466V19.377C53.5466 19.3269 53.5417 19.2781 53.539 19.2287V10.8236C53.539 10.2521 53.0758 9.78881 52.5042 9.78881H41.5322L32.0466 0.303036C31.8524 0.10903 31.5892 0 31.3148 0C31.0403 0 30.7771 0.108997 30.583 0.303036L23.4304 7.45561L20.068 4.09306C19.6638 3.68898 19.0087 3.68898 18.6045 4.09306L12.902 9.79544C12.8644 9.79127 12.8261 9.78881 12.7873 9.78881H1.0348C0.463262 9.78881 0 10.2521 0 10.8236V21.8369C0 21.8707 0.00187302 21.904 0.00506046 21.9369V56.1864C0.00506046 57.7351 1.26508 58.9951 2.81381 58.9951H50.7378C52.2865 58.9951 53.5466 57.7351 53.5466 56.1864V45.2718H57.7904C58.362 45.2718 58.8252 44.8085 58.8252 44.237V31.3265C58.8252 30.7549 58.362 30.2917 57.7904 30.2917ZM51.4694 11.8584V16.6682C51.2357 16.605 50.9911 16.5682 50.7377 16.5682H48.3114L43.6017 11.8584H51.4694ZM31.3148 2.49823L45.3846 16.5682H42.2438L29.7444 4.06864L31.3148 2.49823ZM28.2808 5.53224L39.3167 16.5682H32.5432L24.894 8.91903L28.2808 5.53224ZM19.3362 6.28825L21.967 8.919L23.4304 10.3824L29.6162 16.5682H26.7956L17.926 7.69854L19.3362 6.28825ZM23.8684 16.5682H9.05632L16.4624 9.16213L23.8684 16.5682ZM6.1293 16.5682H2.81381C2.55583 16.5682 2.30711 16.606 2.06963 16.6714V11.8584H10.8391L6.1293 16.5682ZM51.4769 56.1864C51.4769 56.5939 51.1453 56.9255 50.7378 56.9255H2.81381C2.40628 56.9255 2.07469 56.5939 2.07469 56.1864V19.377C2.07469 18.9694 2.40628 18.6378 2.81381 18.6378H50.7378C51.1199 18.6378 51.4316 18.9304 51.4694 19.3026V21.8369C51.4694 21.8775 51.4725 21.9175 51.477 21.9569V30.2917H42.0713C37.9413 30.2917 34.5812 33.6516 34.5812 37.7816C34.5812 41.9118 37.9413 45.2719 42.0713 45.2719H51.477V56.1864H51.4769ZM56.7556 43.2023H53.5466H51.477H42.0713C39.0825 43.2023 36.6509 40.7705 36.6509 37.7816C36.6509 34.7928 39.0825 32.3613 42.0713 32.3613H51.477H53.5466H56.7556V43.2023Z" fill="#AE9D81"/>
<path d="M42.1205 34.2336C40.1642 34.2336 38.5726 35.8253 38.5726 37.7816C38.5726 39.7378 40.1642 41.3295 42.1205 41.3295C44.0768 41.3295 45.6684 39.7378 45.6684 37.7816C45.6684 35.8253 44.0768 34.2336 42.1205 34.2336ZM42.1205 39.2599C41.3054 39.2599 40.6422 38.5966 40.6422 37.7816C40.6422 36.9665 41.3054 36.3033 42.1205 36.3033C42.9356 36.3033 43.5988 36.9665 43.5988 37.7816C43.5988 38.5966 42.9356 39.2599 42.1205 39.2599Z" fill="#AE9D81"/>
</svg>
