<svg xmlns="http://www.w3.org/2000/svg" width="50pt" height="50pt" viewBox="0 0 50 50"><g fill="#fff"><path d="M25 0C14.375 0 5.73 8.645 5.73 19.27c0 5.976 3.09 12.918 9.192 20.632 4.46 5.645 8.86 9.543 9.043 9.707a1.57 1.57 0 002.07 0c.184-.164 4.582-4.062 9.043-9.707 6.102-7.715 9.192-14.656 9.192-20.632C44.27 8.645 35.625 0 25 0zm0 46.305c-3.715-3.54-16.145-16.2-16.145-27.035 0-8.903 7.243-16.145 16.145-16.145s16.145 7.242 16.145 16.145c0 10.835-12.43 23.496-16.145 27.035zm0 0"/><path d="M36.953 18.344L26.016 8.969c-.582-.5-1.45-.5-2.032 0l-10.937 9.375a1.565 1.565 0 00-.172 2.203c.563.656 1.55.73 2.203.172l1.328-1.137v7.762c0 .863.7 1.562 1.563 1.562H32.03c.864 0 1.563-.699 1.563-1.562v-7.762l1.328 1.137c.656.562 1.644.48 2.203-.172a1.565 1.565 0 00-.172-2.203zM30.47 25.78H19.53v-8.879L25 12.215l5.469 4.687zm0 0"/></g></svg>