<svg xmlns="http://www.w3.org/2000/svg" width="50pt" height="50pt" viewBox="0 0 50 50"><path d="M45.605 7.422H4.395A4.401 4.401 0 000 11.816v26.368a4.4 4.4 0 004.395 4.394h41.21A4.401 4.401 0 0050 38.184V11.816a4.399 4.399 0 00-4.395-4.394zm-.617 2.93c-.894.894-16.347 16.261-16.883 16.793A4.355 4.355 0 0125 28.434a4.352 4.352 0 01-3.11-1.293c-.359-.356-15.64-15.555-16.878-16.79zM2.93 37.586V12.414l12.66 12.594zm2.082 2.062l12.656-12.574 2.152 2.145A7.277 7.277 0 0025 31.363a7.262 7.262 0 005.176-2.144l2.156-2.145 12.656 12.574zm42.058-2.062L34.41 25.008l12.66-12.594zm0 0" fill="#fff"/></svg>