<svg xmlns="http://www.w3.org/2000/svg" width="50pt" height="50pt" viewBox="0 0 50 50"><path d="M35.934 50c-1.614 0-3.215-.285-4.778-.855-6.894-2.504-13.293-6.583-18.508-11.793C7.438 32.137 3.36 25.738.855 18.844a13.837 13.837 0 01-.707-6.797 14.194 14.194 0 012.407-6.035 14.28 14.28 0 014.882-4.348A13.911 13.911 0 0114.102 0c.738 0 1.375.516 1.53 1.234l2.45 11.446a1.557 1.557 0 01-.422 1.433l-4.191 4.188a41.105 41.105 0 0018.23 18.23l4.188-4.191a1.557 1.557 0 011.433-.422l11.446 2.45A1.568 1.568 0 0150 35.897c0 2.368-.559 4.61-1.664 6.664a14.233 14.233 0 01-4.348 4.88 14.15 14.15 0 01-6.035 2.41c-.672.097-1.348.148-2.02.148zM12.855 3.191C9.73 3.54 6.957 5.176 5.117 7.805c-2.07 2.953-2.554 6.59-1.328 9.972a47.407 47.407 0 0028.434 28.434c3.382 1.227 7.02.746 9.972-1.328 2.63-1.84 4.266-4.613 4.614-7.738l-9.313-1.997-4.375 4.38a1.562 1.562 0 01-1.77.308 44.235 44.235 0 01-21.187-21.188 1.562 1.562 0 01.309-1.77l4.379-4.374zm0 0" fill="#fff"/></svg>