<?xml version="1.0" encoding="utf-8"?><svg viewBox="0 0 512 512" xmlns="http://www.w3.org/2000/svg" xmlns:xlink="http://www.w3.org/1999/xlink"><style>:root>svg{display:none}:root>svg:target{display:block}</style><svg viewBox="0 0 26 25" id="cart" xmlns="http://www.w3.org/2000/svg"><path d="M20.526 19.737c.726 0 1.422.277 1.936.77.513.494.801 1.163.801 1.861s-.288 1.368-.801 1.861c-.514.494-1.21.771-1.936.771a2.793 2.793 0 01-1.935-.77 2.581 2.581 0 01-.801-1.862c0-.697.288-1.367.801-1.86a2.793 2.793 0 011.935-.771zm0 1.316c-.362 0-.71.138-.967.385a1.29 1.29 0 00-.4.93c0 .35.143.684.4.93.256.248.605.386.967.386.364 0 .712-.138.968-.385.257-.247.401-.582.401-.93a1.29 1.29 0 00-.4-.931 1.397 1.397 0 00-.969-.385zM8.211 19.737c.725 0 1.422.277 1.935.77.513.494.801 1.163.801 1.861s-.288 1.368-.801 1.861c-.513.494-1.21.771-1.935.771a2.794 2.794 0 01-1.936-.77 2.581 2.581 0 01-.801-1.862c0-.697.288-1.367.801-1.86a2.794 2.794 0 011.936-.771zm0 1.316c-.363 0-.711.138-.968.385a1.29 1.29 0 00-.4.93c0 .35.143.684.4.93.257.248.605.386.968.386s.71-.138.967-.385.401-.582.401-.93a1.29 1.29 0 00-.4-.931 1.397 1.397 0 00-.968-.385zM23.263 3.947H4.48l3.485 7.895h11.194c.213 0 .423-.047.613-.14a1.35 1.35 0 00.482-.389l4.105-5.263h.002a1.272 1.272 0 00.127-1.376 1.337 1.337 0 00-.505-.53 1.41 1.41 0 00-.719-.197zm-4.105 9.21H8.028L6.978 15.21l-.137.58c0 .348.144.683.401.93s.605.385.968.385h15.052v1.316H8.211c-.477 0-.945-.12-1.36-.346a2.688 2.688 0 01-1-.95 2.552 2.552 0 01-.035-2.612l.985-1.94-4.97-11.257H0V0h2.737l1.162 2.632h19.364c.517 0 1.024.14 1.461.406.438.265.788.645 1.01 1.093a2.543 2.543 0 01-.345 2.79L21.4 12.034c-.252.347-.588.63-.978.826-.39.196-.825.298-1.265.298z"/></svg><svg viewBox="0 0 329.269 329" id="close" xmlns="http://www.w3.org/2000/svg"><path class="bc-item__delete" d="M194.8 164.77L323.013 36.555c8.343-8.34 8.343-21.825 0-30.164-8.34-8.34-21.825-8.34-30.164 0L164.633 134.605 36.422 6.391c-8.344-8.34-21.824-8.34-30.164 0-8.344 8.34-8.344 21.824 0 30.164l128.21 128.215L6.259 292.984c-8.344 8.34-8.344 21.825 0 30.164a21.266 21.266 0 0015.082 6.25c5.46 0 10.922-2.09 15.082-6.25l128.21-128.214 128.216 128.214a21.273 21.273 0 0015.082 6.25c5.46 0 10.922-2.09 15.082-6.25 8.343-8.34 8.343-21.824 0-30.164zm0 0"/></svg><svg viewBox="0 0 24 24" id="facebook" xmlns="http://www.w3.org/2000/svg"><path d="M15.997 3.985h2.191V.169C17.81.117 16.51 0 14.996 0c-3.159 0-5.323 1.987-5.323 5.639V9H6.187v4.266h3.486V24h4.274V13.267h3.345l.531-4.266h-3.877V6.062c.001-1.233.333-2.077 2.051-2.077z"/></svg><svg viewBox="0 0 511 511.9" id="instagram" xmlns="http://www.w3.org/2000/svg"><path d="M510.95 150.5c-1.2-27.2-5.598-45.898-11.9-62.102-6.5-17.199-16.5-32.597-29.6-45.398-12.802-13-28.302-23.102-45.302-29.5-16.296-6.3-34.898-10.7-62.097-11.898C334.648.3 325.949 0 256.449 0s-78.199.3-105.5 1.5c-27.199 1.2-45.898 5.602-62.097 11.898-17.204 6.5-32.602 16.5-45.403 29.602-13 12.8-23.097 28.3-29.5 45.3-6.3 16.302-10.699 34.9-11.898 62.098C.75 177.801.449 186.5.449 256s.301 78.2 1.5 105.5c1.2 27.2 5.602 45.898 11.903 62.102 6.5 17.199 16.597 32.597 29.597 45.398 12.801 13 28.301 23.102 45.301 29.5 16.3 6.3 34.898 10.7 62.102 11.898 27.296 1.204 36 1.5 105.5 1.5s78.199-.296 105.5-1.5c27.199-1.199 45.898-5.597 62.097-11.898a130.934 130.934 0 0074.903-74.898c6.296-16.301 10.699-34.903 11.898-62.102 1.2-27.3 1.5-36 1.5-105.5s-.102-78.2-1.3-105.5zm-46.098 209c-1.102 25-5.301 38.5-8.801 47.5-8.602 22.3-26.301 40-48.602 48.602-9 3.5-22.597 7.699-47.5 8.796-27 1.204-35.097 1.5-103.398 1.5s-76.5-.296-103.403-1.5c-25-1.097-38.5-5.296-47.5-8.796C94.551 451.5 84.45 445 76.25 436.5c-8.5-8.3-15-18.3-19.102-29.398-3.5-9-7.699-22.602-8.796-47.5-1.204-27-1.5-35.102-1.5-103.403s.296-76.5 1.5-103.398c1.097-25 5.296-38.5 8.796-47.5C61.25 94.199 67.75 84.1 76.352 75.898c8.296-8.5 18.296-15 29.398-19.097 9-3.5 22.602-7.7 47.5-8.801 27-1.2 35.102-1.5 103.398-1.5 68.403 0 76.5.3 103.403 1.5 25 1.102 38.5 5.3 47.5 8.8 11.097 4.098 21.199 10.598 29.398 19.098 8.5 8.301 15 18.301 19.102 29.403 3.5 9 7.699 22.597 8.8 47.5 1.2 27 1.5 35.097 1.5 103.398s-.3 76.301-1.5 103.301zm0 0"/><path d="M256.45 124.5c-72.598 0-131.5 58.898-131.5 131.5s58.902 131.5 131.5 131.5c72.6 0 131.5-58.898 131.5-131.5s-58.9-131.5-131.5-131.5zm0 216.8c-47.098 0-85.302-38.198-85.302-85.3s38.204-85.3 85.301-85.3c47.102 0 85.301 38.198 85.301 85.3s-38.2 85.3-85.3 85.3zm0 0M423.852 119.3c0 16.954-13.747 30.7-30.704 30.7-16.953 0-30.699-13.746-30.699-30.7 0-16.956 13.746-30.698 30.7-30.698 16.956 0 30.703 13.742 30.703 30.699zm0 0"/></svg><svg viewBox="0 0 14 14" id="search" xmlns="http://www.w3.org/2000/svg"><path d="M13.828 13.004l-3.98-3.98a5.526 5.526 0 001.234-3.481A5.546 5.546 0 005.543 0 5.546 5.546 0 000 5.543a5.546 5.546 0 005.543 5.539 5.526 5.526 0 003.48-1.234l3.98 3.98a.583.583 0 10.825-.824zM5.543 9.918a4.38 4.38 0 01-4.375-4.375 4.378 4.378 0 014.375-4.375 4.38 4.38 0 014.375 4.375 4.383 4.383 0 01-4.375 4.375zm0 0"/></svg></svg>