<svg xmlns="http://www.w3.org/2000/svg" width="371" height="371"><path fill="#fff" d="M287.043 3.788H83.85L.505 4.752 0 86.132v198.734c0 45.406 37.655 82.346 83.957 82.346h203.086c46.291 0 83.957-36.938 83.957-82.346V86.133c0-45.407-37.668-82.345-83.957-82.345zm66.91 281.079c0 36.021-30.008 65.312-66.91 65.312H97.048l16.375-42.138h78.841c2.998 13.388 14.963 23.435 29.256 23.435 16.553 0 30.031-13.479 30.031-30.021 0-16.586-13.48-30.066-30.031-30.066-14.822 0-27.068 10.801-29.539 24.916h-86.58l-20.504 52.844 2.658 1.032h-3.6c-36.902 0-66.924-29.29-66.924-65.312v-29.764H276.42c3.717 12.354 15.07 21.436 28.621 21.436 16.574 0 30.031-13.48 30.031-30.066 0-16.541-13.457-30.021-30.031-30.021-15.506 0-28.162 11.833-29.727 26.938H17.031v-48.938h168.75c3.715 12.375 15.067 21.436 28.622 21.436 16.562 0 30.045-13.48 30.045-30.047 0-16.562-13.482-30.044-30.045-30.044-15.506 0-28.15 11.834-29.729 26.938H17.031v-49.83H175.03l11.986-43.479c.871.07 1.721.259 2.623.259 16.562 0 30.045-13.481 30.045-30.045s-13.479-30.021-30.045-30.021c-16.562 0-30.042 13.457-30.042 30.021 0 11.553 6.61 21.457 16.163 26.492l-9.659 35.055H17.031V86.18l.389-64.605 66.535-.753h203.088c36.9 0 66.908 29.292 66.908 65.312l.002 198.733zM203.18 301.453c0-10.116 8.225-18.327 18.34-18.327 10.096 0 18.314 8.211 18.314 18.327 0 10.069-8.221 18.305-18.314 18.305-10.118 0-18.34-8.236-18.34-18.305zm83.533-54.981c0-10.095 8.234-18.305 18.328-18.305 10.092 0 18.314 8.21 18.314 18.305 0 10.116-8.225 18.326-18.314 18.326-10.094 0-18.328-8.21-18.328-18.326zm-90.639-60.631c0-10.116 8.223-18.304 18.328-18.304 10.094 0 18.312 8.188 18.312 18.304 0 10.117-8.223 18.307-18.312 18.307-10.105-.002-18.328-8.19-18.328-18.307zm-24.75-126.2c0-10.093 8.21-18.304 18.314-18.304 10.082 0 18.314 8.211 18.314 18.304 0 10.117-8.232 18.306-18.314 18.306-10.103-.001-18.314-8.189-18.314-18.306z"/></svg>